<?xml version="1.0" standalone="no"?>
<!DOCTYPE svg PUBLIC "-//W3C//DTD SVG 20010904//EN"
 "http://www.w3.org/TR/2001/REC-SVG-20010904/DTD/svg10.dtd">
<svg version="1.0" xmlns="http://www.w3.org/2000/svg"
 width="1000" height="1000" viewBox="0 0 880.000000 920.000000"
 preserveAspectRatio="xMidYMid meet">

<g transform="translate(0.000000,920.000000) scale(0.100000,-0.100000)"
fill="#000000" stroke="none">
<path d="M4929 8781 c-104 -33 -201 -119 -244 -215 -17 -37 -43 -170 -94 -480
-64 -382 -75 -436 -102 -490 -81 -159 -224 -340 -650 -821 -307 -346 -362
-432 -628 -985 -100 -207 -146 -277 -204 -306 -17 -9 -81 -22 -142 -29 -138
-16 -190 -40 -267 -124 -62 -66 -98 -134 -122 -227 -14 -56 -16 -247 -16
-1845 0 -1977 -4 -1846 67 -1981 45 -86 132 -169 205 -196 44 -16 100 -21 319
-30 386 -17 572 -46 1031 -161 369 -94 200 -85 1803 -89 1562 -3 1513 -5 1707
58 177 57 325 147 459 280 179 177 293 400 334 653 22 138 22 3046 0 3184 -84
519 -490 916 -1006 983 -42 5 -416 10 -856 10 -739 0 -783 1 -783 18 0 9 9 64
20 122 170 879 183 1556 40 2022 -64 207 -200 423 -330 523 -159 122 -387 175
-541 126z m266 -289 c108 -42 195 -135 271 -287 200 -404 198 -1134 -5 -2152
-23 -112 -41 -218 -41 -235 0 -39 30 -91 62 -110 18 -10 211 -14 953 -18 920
-6 931 -6 1010 -28 110 -30 267 -110 347 -176 141 -117 253 -294 301 -476 l22
-85 0 -1540 0 -1540 -23 -85 c-28 -106 -94 -246 -156 -327 -137 -182 -363
-314 -587 -343 -59 -8 -504 -10 -1479 -7 -1592 4 -1364 -10 -1827 106 -389 97
-635 132 -1031 147 l-183 7 -29 29 c-63 63 -60 -41 -60 1888 0 1930 -4 1812
59 1879 22 24 38 30 87 35 176 18 263 50 351 130 78 70 131 159 258 427 127
268 230 457 309 564 57 78 170 210 422 496 305 345 446 535 526 706 38 81 43
103 109 506 38 232 77 436 86 454 23 48 65 65 141 58 34 -3 83 -13 107 -23z"/>
<path d="M672 5690 c-29 -10 -68 -28 -87 -40 -55 -34 -132 -126 -157 -188
l-23 -57 0 -2150 0 -2150 32 -67 c44 -94 107 -157 195 -199 l73 -34 584 -3
c561 -3 588 -2 651 17 123 38 226 137 268 257 16 45 17 199 20 2124 2 1407 -1
2101 -8 2155 -19 147 -97 256 -225 317 l-70 33 -600 2 c-569 2 -603 2 -653
-17z m1208 -275 c65 -34 60 153 60 -2155 0 -2059 0 -2096 -20 -2127 -12 -21
-32 -36 -57 -43 -26 -8 -203 -10 -575 -8 l-538 3 -32 33 -33 32 0 2106 0 2106
37 34 38 34 545 0 c465 0 550 -2 575 -15z"/>
</g>
</svg>
