<?xml version="1.0" standalone="no"?>
<!DOCTYPE svg PUBLIC "-//W3C//DTD SVG 20010904//EN"
 "http://www.w3.org/TR/2001/REC-SVG-20010904/DTD/svg10.dtd">
<svg version="1.0" xmlns="http://www.w3.org/2000/svg"
 width="2000.000000pt" height="2000" viewBox="0 0 2000.000000 2000.000000"
 preserveAspectRatio="xMidYMid meet">

<g transform="translate(0.000000,2000.000000) scale(0.100000,-0.100000)"
fill="#000000" stroke="none">
<path d="M13663 8128 c-18 -13 -33 -29 -33 -35 0 -7 -5 -13 -11 -13 -17 0
-138 -126 -284 -295 -98 -114 -188 -194 -285 -252 -19 -12 -51 -38 -70 -58
-19 -20 -51 -46 -70 -58 -19 -12 -43 -31 -53 -44 -10 -12 -28 -25 -40 -29 -27
-8 -100 -65 -93 -72 3 -3 -13 -19 -37 -36 -23 -17 -46 -36 -50 -43 -4 -7 -17
-13 -27 -13 -11 0 -19 -4 -17 -9 2 -10 -95 -80 -164 -117 -21 -12 -35 -25 -31
-28 3 -4 -1 -4 -11 0 -12 4 -17 1 -17 -12 0 -9 -3 -14 -7 -11 -3 4 -25 -10
-47 -31 -23 -20 -54 -46 -70 -57 -29 -20 -158 -127 -185 -153 -8 -8 -38 -31
-67 -53 -29 -21 -59 -47 -66 -57 -7 -10 -41 -39 -75 -64 -34 -26 -70 -54 -80
-63 -10 -9 -47 -37 -82 -63 -36 -25 -78 -59 -95 -75 -17 -16 -53 -46 -81 -67
-27 -21 -65 -51 -82 -66 -18 -16 -54 -45 -80 -64 -27 -19 -61 -48 -78 -65 -16
-16 -52 -46 -80 -65 -27 -19 -60 -45 -71 -57 -12 -13 -26 -23 -33 -23 -6 0
-11 -4 -11 -8 0 -5 -19 -23 -43 -40 -24 -17 -57 -44 -74 -59 -17 -16 -64 -56
-104 -88 -40 -33 -81 -66 -89 -75 -9 -8 -38 -33 -65 -55 -27 -22 -68 -57 -90
-78 -22 -20 -58 -46 -80 -56 -60 -30 -635 -151 -1165 -246 -168 -30 -366 -66
-440 -80 -74 -13 -188 -33 -252 -45 -64 -11 -128 -24 -142 -30 -14 -5 -32 -7
-40 -4 -7 3 -38 -1 -67 -10 -30 -8 -83 -17 -119 -21 -36 -3 -144 -17 -240 -31
-96 -14 -191 -23 -210 -20 -19 3 -56 10 -82 14 -33 6 -56 5 -78 -4 -17 -8 -59
-16 -93 -19 -34 -3 -109 -12 -167 -19 -61 -8 -115 -10 -128 -5 -12 5 -91 80
-176 166 -85 87 -198 196 -252 243 -53 47 -113 100 -133 118 l-36 33 35 -5
c35 -5 35 -5 -5 8 -45 15 -149 70 -241 126 -208 129 -426 212 -674 257 -136
25 -493 25 -645 0 -325 -54 -653 -158 -1038 -331 -249 -112 -797 -386 -953
-478 -34 -20 -71 -39 -83 -43 -11 -3 -21 -11 -21 -16 0 -5 -6 -9 -14 -9 -7 0
-19 -7 -26 -15 -7 -8 -10 -15 -7 -15 7 0 94 39 222 100 61 29 137 65 170 80
33 15 118 55 188 89 71 34 131 61 134 61 3 0 40 17 82 39 42 21 128 60 191 85
129 53 129 53 221 95 37 17 70 31 74 31 4 0 22 7 41 15 73 32 101 43 139 55
22 7 54 18 70 25 17 7 68 25 115 40 47 15 96 31 110 36 54 18 186 50 283 69
89 16 144 25 305 45 49 6 379 -13 442 -26 194 -38 342 -90 548 -193 l42 -21
-112 -6 c-578 -33 -1113 -363 -1733 -1070 -93 -105 -326 -392 -405 -499 -14
-18 -43 -56 -66 -84 -42 -53 -225 -294 -259 -342 -11 -15 -32 -42 -46 -59 -14
-16 -72 -93 -130 -170 -181 -243 -430 -560 -454 -580 -7 -5 -45 -48 -85 -95
-161 -189 -397 -438 -410 -433 -3 1 -11 -7 -18 -18 -19 -30 11 -25 49 9 60 53
173 158 220 203 35 34 59 48 88 53 21 3 41 11 43 16 5 17 98 21 98 5 0 -7 5
-15 12 -17 12 -4 -11 -44 -57 -95 -30 -33 -44 -51 -80 -98 -16 -22 -36 -47
-45 -55 -8 -9 -53 -59 -100 -110 -47 -52 -104 -115 -127 -140 -38 -40 -51 -60
-39 -60 26 0 427 411 597 610 35 41 68 80 74 86 27 30 142 161 336 384 569
652 896 944 1270 1135 295 151 577 191 809 114 79 -26 97 -38 78 -51 -8 -6 -2
-7 17 -3 41 9 30 1 -30 -24 -29 -11 -41 -20 -29 -20 11 -1 24 3 30 8 13 14 93
30 99 21 2 -4 -17 -10 -44 -14 -27 -4 -51 -12 -54 -19 -4 -11 4 -11 46 0 28 7
63 13 77 12 14 0 -6 -9 -43 -19 -65 -17 -112 -40 -54 -26 32 8 126 18 112 12
-5 -2 -48 -14 -94 -27 -60 -16 -79 -25 -65 -30 10 -3 27 -2 37 3 24 12 32 5
13 -11 -8 -7 -40 -15 -71 -18 -54 -6 -66 -15 -23 -18 12 -1 24 -7 26 -15 3 -9
-3 -11 -22 -8 -19 4 -29 0 -36 -13 -8 -14 -6 -18 13 -22 12 -2 1 -5 -25 -6
-26 0 -49 -5 -52 -10 -3 -4 7 -6 22 -4 l27 3 -25 -11 -25 -12 25 -7 c24 -6 24
-7 -7 -14 -18 -4 -33 -12 -33 -16 0 -13 -53 -60 -67 -60 -6 0 -21 -16 -33 -35
-12 -19 -26 -33 -31 -29 -5 3 -10 0 -10 -5 -1 -6 -2 -17 -3 -23 -1 -7 -7 -12
-14 -10 -7 1 -12 -2 -12 -8 0 -5 8 -10 18 -10 15 -1 15 -2 1 -13 -8 -7 -22
-27 -30 -44 -7 -18 -20 -33 -28 -33 -7 0 -11 -6 -7 -15 3 -8 2 -14 -2 -14 -20
3 -32 -3 -32 -16 0 -7 -8 -18 -17 -24 -10 -5 -15 -13 -11 -17 4 -3 1 -19 -8
-35 -8 -16 -12 -29 -8 -29 3 0 -6 -14 -20 -31 -14 -17 -26 -35 -26 -40 0 -5
-11 -27 -25 -50 -14 -22 -23 -44 -20 -49 4 -6 2 -10 -2 -10 -5 0 -15 -17 -22
-37 -8 -21 -19 -45 -26 -53 -7 -8 -25 -40 -39 -70 -28 -57 -47 -91 -56 -100
-3 -3 -21 -34 -39 -70 -18 -36 -57 -113 -87 -171 -30 -59 -54 -113 -54 -120 0
-17 39 31 40 49 0 6 3 12 8 12 4 0 12 10 18 23 6 12 37 67 69 122 32 55 69
120 83 145 27 50 111 196 180 310 206 342 496 594 777 675 l59 18 85 -89 c153
-161 245 -295 476 -698 75 -132 147 -256 159 -275 12 -20 44 -79 70 -131 27
-52 52 -100 57 -105 4 -6 11 -29 15 -52 5 -33 3 -41 -12 -47 -117 -47 -458
-156 -486 -156 -11 0 -32 -7 -46 -15 -15 -8 -126 -47 -247 -86 -249 -80 -311
-102 -275 -95 50 10 146 34 215 55 171 51 213 64 252 78 24 8 46 12 51 9 15
-9 205 55 222 74 3 4 31 12 63 19 31 7 93 26 137 42 63 23 85 27 105 19 l26
-10 -28 -25 c-15 -13 -22 -25 -15 -25 6 0 12 4 12 9 0 5 15 15 33 22 17 7 35
14 39 16 3 2 21 -16 39 -41 18 -26 38 -46 45 -46 20 0 27 19 14 35 -9 11 -9
19 -2 28 6 7 9 25 8 40 -5 44 -27 35 634 258 113 39 241 81 285 94 44 13 145
44 225 69 80 25 151 46 158 46 8 0 26 -8 40 -18 15 -10 43 -25 62 -32 19 -8
37 -17 40 -20 3 -3 39 -22 80 -42 101 -49 288 -187 289 -214 2 -20 47 -54 74
-54 24 0 63 -16 77 -31 3 -3 23 -18 45 -35 22 -16 56 -44 75 -61 19 -18 59
-44 89 -58 29 -14 70 -37 89 -50 52 -36 63 -31 13 5 -23 17 -50 38 -61 48 -35
32 -47 40 -91 63 -46 23 -97 58 -139 97 -14 12 -28 22 -32 22 -5 0 -8 7 -8 15
0 11 -58 62 -124 107 -7 5 -7 11 1 19 11 11 66 -1 103 -22 39 -23 69 -31 110
-31 24 0 57 -6 72 -14 15 -8 42 -16 60 -19 18 -2 69 -14 113 -25 44 -11 127
-25 185 -30 58 -6 119 -13 137 -16 35 -7 76 3 68 16 -5 8 -53 14 -190 25 -38
4 -133 20 -210 37 -77 18 -150 32 -162 32 -27 1 -40 26 -15 27 10 0 12 3 5 6
-7 2 -13 9 -13 14 0 6 4 7 10 4 5 -3 26 10 46 30 l35 36 -28 -7 c-15 -4 -35
-16 -44 -27 -22 -28 -107 -35 -153 -13 -19 9 -43 16 -54 16 -12 0 -24 5 -27
10 -3 6 -17 10 -30 10 -13 0 -26 4 -29 9 -3 5 -18 12 -33 16 -68 17 -289 209
-261 227 7 4 45 18 83 29 39 12 101 32 139 45 113 40 331 93 357 88 18 -5 21
-3 9 5 -19 13 -1 20 210 81 255 73 335 94 620 164 300 74 357 85 346 68 -9
-15 2 -15 43 -1 17 6 31 16 31 22 0 6 3 8 6 5 3 -4 29 5 59 18 70 32 388 104
402 91 8 -8 -86 -163 -155 -257 -208 -282 -418 -387 -783 -393 -57 -1 -135 2
-173 7 -93 11 -78 -7 21 -25 48 -9 146 -14 253 -14 172 0 176 1 268 33 181 65
236 99 377 234 41 39 63 54 71 47 6 -5 19 -6 29 -3 28 11 36 -16 14 -47 -10
-15 -19 -30 -19 -33 0 -3 -17 -30 -37 -58 -139 -198 -259 -311 -438 -413 -27
-15 -52 -31 -55 -34 -12 -15 -75 -37 -195 -67 -97 -24 -120 -32 -90 -33 43 -1
166 28 203 48 12 6 22 9 22 5 0 -3 16 3 36 15 19 12 43 21 53 21 16 0 129 56
141 69 12 14 70 51 80 51 6 0 8 5 5 10 -3 6 -1 10 5 10 6 0 33 22 60 49 28 27
50 47 50 43 0 -3 13 14 29 39 16 24 45 62 65 84 68 74 130 178 251 418 l120
239 70 18 c81 20 319 61 530 91 44 6 87 12 95 14 62 12 201 26 209 21 5 -3 78
3 163 13 449 58 874 82 1406 82 757 -1 1229 -40 1912 -161 119 -21 348 -67
400 -80 19 -5 46 -11 60 -13 14 -3 93 -23 175 -45 156 -42 249 -59 373 -65
l74 -4 -29 19 c-15 10 -39 24 -53 30 -50 20 11 25 140 11 69 -7 166 -13 215
-14 84 -1 194 -19 240 -39 11 -5 65 -21 120 -35 203 -53 383 -119 560 -206
124 -61 356 -208 483 -307 40 -31 109 -85 155 -119 45 -35 87 -67 94 -73 7 -5
15 -10 18 -10 10 0 108 -76 129 -98 10 -12 23 -19 28 -16 5 3 24 -12 43 -33
19 -21 35 -34 35 -29 0 5 14 -10 30 -32 31 -43 40 -50 40 -32 0 6 -22 33 -49
60 -28 28 -58 63 -69 78 -21 30 -38 97 -22 87 5 -3 7 0 4 8 -3 8 -14 17 -24
20 -11 3 -29 21 -41 41 -12 20 -27 35 -33 33 -6 -2 -24 7 -39 19 -16 13 -34
24 -41 24 -7 0 -25 14 -41 30 -16 17 -34 30 -41 30 -19 0 -67 47 -60 58 3 6
-1 16 -10 23 -12 10 -17 10 -23 1 -5 -9 -15 -10 -32 -3 -21 9 -21 10 -4 11 17
0 17 2 5 10 -8 5 -23 10 -34 10 -20 0 -96 72 -96 91 0 6 -7 8 -16 5 -11 -4
-30 8 -59 39 -24 25 -45 40 -47 34 -2 -7 -16 -1 -35 15 -17 14 -39 26 -48 26
-9 0 -47 15 -84 33 -189 95 -329 149 -543 207 -220 61 -330 76 -622 86 -130 5
-203 3 -224 -4 -34 -12 -189 5 -292 32 -139 37 -303 75 -390 91 -52 10 -104
21 -115 25 -11 4 -45 13 -75 18 -30 6 -90 18 -132 27 -43 8 -113 22 -155 30
-43 9 -108 22 -144 30 -37 8 -83 15 -104 15 -20 0 -45 5 -56 11 -11 5 -39 10
-62 10 -23 0 -64 7 -90 16 -30 9 -62 12 -83 8 -20 -3 -41 -2 -48 4 -10 9 -108
20 -210 24 -22 1 -41 8 -44 15 -2 6 -8 9 -14 6 -5 -4 -30 -8 -53 -10 -39 -3
-44 -1 -47 19 -2 15 -11 23 -28 25 -14 2 -29 7 -35 12 -5 4 -34 6 -63 4 -38
-3 -51 -1 -46 8 5 8 -7 10 -44 5 -31 -4 -54 -2 -58 4 -7 13 -66 8 -76 -6 -9
-12 -30 14 -22 27 11 17 -44 7 -66 -12 -30 -26 -33 -25 -28 5 7 34 -22 33 -68
-1 -19 -15 -37 -24 -41 -20 -3 3 -1 6 6 6 7 0 10 4 6 9 -3 5 0 13 7 17 9 6 5
10 -12 15 -19 4 -32 -1 -53 -20 -23 -21 -30 -23 -37 -11 -6 9 -3 18 8 27 16
11 16 12 -1 13 -10 0 -15 5 -12 10 11 18 -2 10 -33 -20 -18 -17 -36 -30 -42
-30 -13 0 -13 23 -1 35 6 6 4 15 -4 22 -11 10 -17 10 -29 -2 -8 -8 -22 -15
-31 -15 -9 0 -13 -4 -10 -10 3 -5 1 -10 -6 -10 -6 0 -9 8 -6 20 8 29 -31 38
-49 11 -18 -25 -59 -29 -50 -5 3 9 6 18 6 20 0 3 5 2 10 -1 6 -3 10 -2 10 3 0
14 -52 11 -67 -3 -10 -11 -10 -14 0 -18 6 -3 -1 -6 -18 -6 -21 0 -26 2 -16 8
11 7 11 9 0 14 -10 4 -9 6 4 6 22 1 22 17 0 25 -12 5 -24 -2 -38 -20 -11 -15
-31 -38 -45 -53 l-25 -26 -3 29 c-2 16 2 32 8 36 9 6 9 9 -1 13 -9 3 -6 8 10
14 l25 10 -25 6 c-15 4 -26 1 -32 -8 -4 -8 -16 -15 -25 -16 -9 0 -12 -3 -5 -5
9 -4 8 -10 -2 -22 -8 -9 -21 -26 -29 -37 -8 -11 -17 -17 -21 -13 -9 9 3 44 21
63 14 13 12 15 -13 15 -22 0 -25 2 -13 10 9 6 10 10 3 10 -15 0 -36 -37 -28
-50 3 -6 -1 -10 -9 -10 -9 0 -16 -4 -16 -10 0 -5 -6 -10 -14 -10 -15 0 -16 16
-3 38 6 8 2 12 -12 12 -12 0 -21 -3 -21 -7 0 -5 -13 -23 -29 -42 l-29 -33 -4
36 c-2 20 0 36 5 36 4 0 5 5 1 11 -3 6 0 15 7 20 11 7 10 9 -3 9 -10 0 -18 -4
-18 -9 0 -5 -16 -27 -36 -49 -25 -28 -41 -38 -55 -35 -21 6 -26 29 -6 36 7 2
8 8 3 13 -5 5 -11 4 -13 -3 -3 -7 -16 -13 -29 -13 -14 0 -27 -7 -30 -15 -4 -8
-10 -15 -15 -15 -14 0 -11 38 4 43 6 3 7 6 1 6 -5 1 -19 -7 -30 -18 -11 -10
-31 -22 -45 -26 -23 -8 -23 -8 -4 -16 18 -7 17 -8 -7 -8 -21 -1 -25 3 -21 19
3 11 10 20 15 20 5 0 7 4 4 9 -3 5 4 20 15 35 25 32 18 34 -11 4 -16 -18 -20
-19 -20 -6 0 9 7 23 15 32 8 8 15 21 15 28 0 11 -64 -79 -65 -92 0 -9 -45 -54
-49 -49 -2 2 -1 19 1 37 4 24 10 32 26 32 26 0 20 5 -16 14 -19 4 -26 3 -25
-6 2 -7 -4 -13 -12 -13 -8 0 -14 -7 -12 -14 3 -14 -25 -40 -44 -41 -17 0 -12
34 6 42 12 5 10 7 -5 8 -18 1 -17 2 5 15 l25 14 -25 1 c-16 0 -33 -10 -44 -25
-14 -18 -27 -25 -50 -24 -25 1 -26 3 -8 6 15 3 22 10 18 19 -3 8 -1 14 5 14 6
0 9 7 5 15 -3 8 -1 15 4 15 6 0 10 14 10 30 0 17 4 30 9 30 5 0 11 7 15 15 3
9 0 15 -10 15 -9 0 -18 -9 -21 -20 -3 -11 -9 -20 -13 -20 -6 0 -21 -36 -17
-43 1 -1 -6 -11 -16 -22 -9 -11 -23 -29 -31 -40 -12 -16 -17 -18 -27 -7 -11
10 -10 12 5 12 9 0 15 4 12 9 -7 11 11 63 24 71 5 3 11 17 15 33 10 40 -21 49
-47 14 -11 -15 -27 -27 -35 -27 -14 0 -14 2 0 18 10 10 16 31 15 45 -2 24 -7
27 -38 27 -28 0 -41 -7 -65 -36 -17 -20 -30 -39 -30 -43 0 -14 -160 -274 -191
-309 -29 -34 -33 -36 -59 -24 -20 9 -31 10 -41 1 -14 -11 -76 -19 -148 -19
-22 0 -47 -7 -57 -16 -10 -9 -19 -11 -23 -5 -4 6 -17 6 -39 -1 -30 -10 -54
-13 -153 -21 -22 -2 -46 -7 -54 -12 -7 -5 -28 -9 -45 -10 -17 -2 -41 -7 -52
-13 -11 -6 -33 -11 -49 -11 -16 0 -40 -1 -54 -3 -19 -2 -24 1 -22 15 4 27 -24
31 -49 8 -45 -42 -46 -22 -3 97 29 80 26 77 184 172 58 35 119 73 135 85 17
12 37 24 45 27 8 3 58 31 110 63 90 54 127 76 181 107 13 7 26 15 29 18 3 3
61 37 130 74 69 38 166 92 215 119 145 80 235 125 310 153 39 15 88 39 110 54
22 15 130 72 240 127 110 56 218 111 240 122 41 22 249 120 390 185 44 21 96
45 115 55 19 10 46 22 60 26 14 4 61 24 105 45 44 21 103 47 130 58 58 23 168
68 345 142 69 28 168 67 220 86 52 20 129 49 170 66 171 69 761 273 890 307
47 12 128 35 180 51 107 33 272 77 340 92 25 5 54 13 65 18 11 4 38 13 60 18
22 6 74 20 115 31 126 36 141 40 265 66 66 14 158 34 205 45 106 25 317 67
430 86 47 8 130 23 185 34 55 10 125 22 155 25 30 3 109 14 175 25 66 10 152
21 190 25 39 3 106 12 150 20 44 7 115 16 158 19 43 3 81 7 85 10 4 2 50 7
102 10 52 4 118 9 145 12 28 4 75 8 105 9 183 7 343 17 400 25 108 15 528 35
678 32 40 0 42 1 42 29 0 24 -6 32 -29 40 -16 6 -32 17 -35 25 -3 8 -13 14
-23 13 -16 0 -16 -1 2 -9 13 -6 15 -9 5 -9 -13 -1 -13 -2 0 -11 11 -7 -3 -10
-45 -9 -33 0 -54 3 -48 6 10 3 10 10 2 25 -8 15 -18 19 -39 16 -17 -3 -26 0
-23 5 4 7 -8 7 -33 1 -64 -14 -286 -11 -291 4 -7 17 -50 15 -57 -3 -6 -17 -82
-22 -88 -5 -1 5 -23 12 -47 16 -36 6 -43 5 -36 -7 6 -11 5 -12 -6 -1 -7 6 -23
12 -36 12 -14 0 -23 6 -23 15 0 9 -9 15 -22 15 -20 0 -20 1 -5 13 19 13 23 12
-91 21 -49 3 -122 39 -122 59 0 5 -3 6 -7 4 -5 -2 -16 4 -25 14 -13 14 -14 20
-5 26 7 4 12 15 12 23 0 9 10 16 25 17 14 1 70 5 125 9 62 4 91 10 75 14 -22
5 -19 7 18 13 24 4 65 5 92 1 26 -3 63 -1 81 5 60 19 131 24 139 10 9 -14 130
-48 172 -49 34 0 59 10 52 21 -3 5 6 9 20 9 14 0 28 5 32 11 4 8 9 7 15 -2 9
-14 103 -18 211 -9 l56 5 1 78 0 77 -37 -5 c-20 -2 -89 -7 -152 -10 -97 -5
-472 -36 -605 -50 -22 -2 -103 -9 -180 -15 -77 -6 -180 -15 -230 -20 -49 -5
-121 -12 -160 -16 -261 -23 -1008 -130 -1572 -225 -453 -76 -1241 -233 -1638
-325 -60 -14 -200 -46 -310 -70 -471 -105 -1130 -267 -1585 -390 -111 -30
-300 -79 -1080 -278 -118 -30 -217 -53 -219 -50 -5 5 20 56 90 184 20 36 53
97 74 135 70 129 208 370 215 375 4 3 9 10 11 15 2 6 29 52 59 103 30 51 60
100 65 110 37 62 118 182 131 193 9 7 20 22 25 34 9 20 16 31 81 126 114 166
272 367 295 376 7 3 13 10 13 17 0 11 77 84 142 133 64 49 142 112 163 130 10
10 33 28 49 41 16 12 24 22 18 22 -19 0 -112 -51 -112 -61 0 -5 -3 -8 -7 -8
-5 1 -17 1 -28 0 -17 -1 -18 -3 -5 -11 17 -11 4 -12 -24 -1 -16 6 -13 13 30
63 27 31 84 97 127 147 80 93 87 108 30 69z m-671 -740 c-5 -21 -62 -115 -153
-249 -41 -61 -129 -193 -144 -217 -9 -15 -115 -183 -142 -227 -7 -11 -31 -51
-53 -90 -22 -38 -45 -77 -50 -85 -69 -110 -315 -557 -327 -592 -8 -27 3 -23
-471 -144 -488 -124 -940 -229 -949 -220 -2 2 3 10 12 17 9 8 26 23 38 35 12
11 42 36 67 55 25 19 61 50 81 69 19 19 73 67 119 105 46 39 113 97 150 130
99 90 190 168 214 184 12 8 23 18 26 21 3 4 64 55 135 114 72 59 163 135 204
169 41 34 97 79 125 99 28 21 57 43 65 49 7 7 36 27 65 46 28 19 76 57 106 86
58 54 91 77 112 77 7 0 51 36 97 81 45 44 88 78 95 76 6 -3 21 2 31 10 19 14
19 15 -5 8 -20 -5 -22 -4 -10 5 8 6 23 15 32 21 14 8 16 6 11 -8 -3 -10 7 0
22 22 15 22 36 47 45 55 38 33 82 67 130 100 28 19 80 56 115 82 44 32 70 45
84 41 12 -3 21 -1 21 6 0 6 7 11 15 11 8 0 15 4 15 9 0 5 9 13 20 16 11 3 20
12 20 19 0 13 20 36 31 36 4 0 5 -10 1 -22z m-47 -18 c-3 -5 -12 -10 -18 -10
-7 0 -6 4 3 10 19 12 23 12 15 0z m6958 -77 c-13 -2 -35 -2 -50 0 -16 2 -5 4
22 4 28 0 40 -2 28 -4z m75 -37 c3 -3 -30 -6 -74 -6 -49 0 -74 4 -65 9 14 9
129 7 139 -3z m-1063 -186 c3 -5 -1 -10 -9 -10 -8 0 -18 5 -21 10 -3 6 1 10 9
10 8 0 18 -4 21 -10z m-331 -30 c34 0 32 -7 -5 -13 -14 -3 -36 2 -49 10 l-25
14 25 -5 c14 -3 38 -6 54 -6z m79 3 c-7 -2 -21 -2 -30 0 -10 3 -4 5 12 5 17 0
24 -2 18 -5z m-211 -45 l60 -33 -37 -9 c-24 -5 -44 -5 -58 3 -20 9 -19 10 8 5
l30 -5 -25 15 c-22 13 -26 13 -36 0 -13 -16 -63 -10 -76 10 -19 28 -8 37 60
45 7 0 40 -14 74 -31z m279 6 c12 -15 11 -16 -11 -9 -46 14 -58 24 -29 25 15
0 33 -7 40 -16z m382 -11 c-7 -2 -21 -2 -30 0 -10 3 -4 5 12 5 17 0 24 -2 18
-5z m-1078 -13 c-3 -5 -20 -10 -36 -10 -18 0 -28 4 -24 10 3 6 20 10 36 10 18
0 28 -4 24 -10z m-327 -27 c28 -3 52 -9 52 -13 0 -4 -34 -10 -77 -14 -105 -8
-133 -8 -133 4 0 6 21 10 46 10 42 0 45 1 33 17 -12 15 -12 16 6 9 11 -4 44
-10 73 -13z m815 -10 c-7 -2 -19 -2 -25 0 -7 3 -2 5 12 5 14 0 19 -2 13 -5z
m-1050 -30 c-7 -2 -19 -2 -25 0 -7 3 -2 5 12 5 14 0 19 -2 13 -5z m-68 -23 c3
-5 -7 -9 -22 -9 -15 0 -59 -2 -98 -5 l-70 -5 60 13 c74 17 122 19 130 6z m70
-20 c18 -8 17 -9 -7 -9 -16 -1 -28 4 -28 9 0 12 8 12 35 0z m-99 -19 c-3 -4
-22 -5 -43 -2 l-38 5 30 6 c32 7 58 2 51 -9z m194 -15 c0 -12 -135 -15 -147
-3 -3 4 12 7 35 7 22 0 43 4 46 8 7 12 66 2 66 -12z m70 8 c0 -2 -9 -4 -20 -4
-11 0 -20 4 -20 9 0 5 9 7 20 4 11 -3 20 -7 20 -9z m47 -20 c-3 -3 -12 -4 -19
-1 -8 3 -5 6 6 6 11 1 17 -2 13 -5z m-462 -44 c3 -5 -1 -10 -9 -10 -9 0 -16 5
-16 10 0 6 4 10 9 10 6 0 13 -4 16 -10z m-602 -117 c-7 -2 -21 -2 -30 0 -10 3
-4 5 12 5 17 0 24 -2 18 -5z m-1578 -553 c-3 -5 -1 -10 6 -10 7 0 10 -2 7 -5
-3 -3 -13 -2 -22 1 -14 5 -15 9 -4 15 17 11 20 11 13 -1z m-45 -20 c-8 -5 -28
-9 -45 -9 l-30 1 30 8 c17 4 37 8 45 9 13 1 13 0 0 -9z m-140 -9 c0 -5 -14
-14 -30 -21 -46 -19 -30 -22 21 -5 24 9 39 12 34 7 -6 -5 -28 -15 -50 -22 -22
-7 -62 -23 -89 -36 -27 -14 -51 -23 -53 -20 -10 9 56 66 98 86 48 21 69 25 69
11z m-180 -11 c0 -17 -35 -65 -49 -68 -8 -2 -19 -9 -25 -16 -6 -7 -29 -24 -51
-37 -22 -12 -46 -31 -53 -41 -7 -10 -18 -18 -24 -18 -7 0 -6 6 2 15 7 8 9 15
4 15 -5 0 -2 4 6 10 8 5 12 12 8 15 -3 4 -17 0 -30 -8 -12 -8 -39 -20 -59 -26
-28 -9 -36 -16 -32 -30 3 -13 -6 -23 -33 -36 -27 -12 -39 -14 -42 -6 -2 6 -8
9 -13 5 -5 -3 -5 -13 1 -24 8 -14 4 -21 -16 -35 -26 -17 -27 -16 -50 10 -23
28 -59 29 -48 2 5 -13 -8 -21 -68 -46 -18 -6 -28 -7 -28 -1 0 6 7 10 16 10 14
0 14 3 4 15 -28 34 -80 5 -80 -44 0 -17 5 -31 10 -31 18 0 11 -29 -10 -40 -19
-10 -24 -6 -21 14 1 5 -5 6 -14 3 -8 -4 -15 -2 -15 3 0 18 -29 10 -40 -10 -8
-15 -8 -20 1 -20 8 0 8 -4 -1 -15 -7 -8 -19 -15 -28 -15 -8 0 -30 -11 -48 -25
-18 -14 -35 -21 -38 -16 -3 5 1 12 10 15 9 4 14 9 11 12 -3 3 -15 1 -26 -6
-12 -6 -21 -7 -21 -2 0 13 45 49 71 57 46 14 70 35 64 56 -5 14 2 27 24 46 17
15 31 32 31 37 0 5 25 33 55 63 30 30 55 58 55 62 0 4 11 14 25 21 14 7 25 22
25 32 0 10 5 18 11 18 6 0 9 9 6 19 -3 14 -1 18 9 14 8 -3 14 0 14 6 0 18 29
13 46 -8 18 -20 54 -17 54 4 0 15 44 29 48 15 2 -6 12 -10 23 -10 24 0 25 -16
2 -29 -37 -22 12 -11 83 18 43 18 90 29 117 29 25 0 58 7 74 15 34 18 53 20
53 7z m-576 -75 c-4 -10 0 -15 12 -15 16 0 15 -3 -6 -20 -14 -11 -33 -20 -43
-20 -10 0 -26 -8 -35 -17 -16 -15 -15 -16 13 -9 28 7 29 6 10 -7 -10 -8 -24
-13 -30 -11 -5 2 -26 -10 -45 -27 -32 -27 -33 -30 -10 -24 24 7 24 7 5 -9 -11
-8 -26 -16 -32 -16 -7 0 -13 -5 -13 -11 0 -19 -207 -259 -223 -259 -5 0 19 32
53 71 34 39 59 77 56 84 -3 8 5 16 19 19 12 3 25 13 29 21 5 13 2 14 -16 4
-22 -12 81 118 142 179 24 24 29 33 15 28 -11 -5 -34 -12 -52 -17 -18 -6 -35
-14 -38 -19 -4 -6 -16 -10 -29 -10 -12 0 -27 -5 -34 -12 -8 -8 -12 -8 -12 -1
0 14 44 43 65 43 8 0 15 4 15 10 0 5 -8 7 -17 3 -14 -4 -15 -3 -7 6 8 8 18 9
38 2 22 -9 35 -6 79 18 59 33 100 40 91 16z m-827 -56 c-26 -15 -21 -30 8 -23
35 9 51 -32 24 -62 -10 -11 -19 -25 -19 -30 0 -5 -11 -21 -25 -36 -14 -15 -25
-32 -25 -37 0 -5 -9 -17 -21 -25 -12 -8 -19 -19 -15 -24 3 -5 -6 -20 -19 -32
-14 -13 -25 -29 -25 -36 0 -7 -8 -19 -17 -26 -10 -7 -19 -20 -21 -28 -2 -8 -7
-17 -11 -20 -8 -6 -81 -116 -99 -150 -7 -13 -28 -43 -47 -66 -19 -23 -35 -47
-35 -53 0 -6 -8 -20 -17 -31 -10 -11 -18 -24 -18 -28 0 -4 -10 -21 -23 -39
-12 -17 -22 -34 -22 -37 0 -3 -7 -14 -15 -23 -8 -10 -38 -45 -67 -78 -36 -43
-70 -69 -115 -91 -35 -17 -72 -39 -81 -48 -10 -9 -26 -16 -34 -16 -9 0 -38
-15 -64 -33 -27 -18 -63 -39 -81 -46 -17 -7 -46 -24 -64 -37 -18 -13 -40 -24
-50 -24 -9 0 -34 -14 -55 -31 -22 -17 -66 -43 -99 -58 -33 -16 -69 -38 -79
-49 -11 -12 -26 -22 -34 -22 -7 0 -27 -9 -43 -21 -28 -20 -143 -69 -162 -69
-4 0 -5 10 -2 22 6 15 4 20 -6 15 -8 -3 -31 -13 -53 -22 -38 -16 -39 -16 -33
4 6 24 1 25 -33 6 -35 -20 -64 -19 -56 1 5 12 1 14 -17 10 -12 -3 -16 -3 -9 0
6 3 12 13 12 21 0 13 -2 13 -17 2 -15 -12 -16 -12 -8 6 4 11 27 70 51 132 23
61 47 119 53 130 13 24 51 112 50 115 -2 7 133 268 141 273 4 3 11 19 15 35 4
17 11 30 16 30 5 0 9 9 9 20 0 11 7 28 15 37 8 10 14 20 13 23 -2 3 7 19 20
37 12 17 22 36 22 41 0 6 7 18 16 26 9 9 17 22 18 29 4 25 27 57 37 52 5 -4
12 8 16 25 3 17 14 37 24 43 11 7 19 19 19 27 1 11 4 10 12 -4 9 -16 7 -23
-15 -42 -15 -13 -23 -26 -17 -29 5 -3 18 3 30 15 11 11 20 17 20 14 0 -12 30
25 30 38 1 30 45 67 87 72 23 3 52 10 64 16 12 7 33 10 47 7 13 -3 41 2 61 10
45 19 81 23 81 10 0 -6 8 -3 18 6 10 10 35 17 55 17 21 0 54 9 74 20 21 11 49
20 63 20 14 0 31 5 36 10 14 14 54 21 54 10 0 -10 32 -6 75 8 92 32 139 41
146 30 5 -8 19 -7 51 5 24 9 56 17 71 17 29 0 101 32 112 51 4 5 10 7 13 4 4
-4 -1 -11 -11 -16z m573 4 c0 -1 -20 -11 -45 -22 -25 -11 -45 -25 -45 -31 0
-7 6 -8 19 0 11 5 25 10 33 10 18 0 -28 -30 -54 -35 -12 -3 -25 -10 -29 -16
-4 -6 -12 -8 -18 -5 -7 5 0 17 19 33 17 14 28 28 25 31 -9 10 46 40 71 38 13
0 24 -2 24 -3z m-155 -24 c-4 -6 -9 -8 -12 -5 -3 3 -12 -1 -20 -9 -8 -8 -19
-15 -24 -15 -15 0 -10 18 9 29 23 14 55 14 47 0z m249 -13 c-5 -13 -34 -31
-34 -21 0 5 30 35 35 35 3 0 2 -6 -1 -14z m-71 -37 c-18 -16 -33 -34 -33 -38
0 -13 -51 -44 -58 -36 -4 4 7 18 23 31 26 21 27 24 10 24 -16 0 -14 3 10 16
17 8 34 19 40 25 5 5 16 9 25 9 10 0 4 -10 -17 -31z m-233 -9 c-14 -11 -32
-20 -40 -20 -10 0 -7 7 10 20 14 11 32 20 40 20 10 0 7 -7 -10 -20z m-104 1
c-6 -9 -46 -22 -46 -15 0 3 10 9 23 14 29 11 29 11 23 1z m189 -31 c18 -7 16
-10 -17 -24 -37 -16 -55 -42 -20 -29 15 6 15 5 3 -10 -7 -9 -17 -15 -21 -12
-4 3 -13 -2 -20 -10 -7 -8 -18 -15 -24 -15 -6 1 -2 8 9 18 11 9 26 29 32 45 7
15 21 27 30 27 15 0 16 2 3 10 -18 12 -3 12 25 0z m-114 -20 c-24 -21 -51 -26
-51 -12 0 11 39 31 60 31 10 0 8 -6 -9 -19z m-111 -4 c0 -2 -7 -7 -16 -10 -8
-3 -12 -2 -9 4 6 10 25 14 25 6z m284 -35 c3 -5 -1 -12 -10 -15 -20 -8 -29 -1
-19 13 8 13 22 14 29 2z m406 -9 c0 -4 -9 -13 -20 -20 -16 -10 -20 -10 -20 1
0 8 3 17 7 20 9 9 33 9 33 -1z m-636 -16 c-21 -15 -30 -14 -19 3 3 6 14 11 23
11 13 0 13 -2 -4 -14z m189 -25 c-5 -18 -43 -37 -43 -21 0 6 35 36 47 39 0 1
-1 -8 -4 -18z m-218 -20 c-3 -6 -11 -11 -16 -11 -5 0 -4 6 3 14 14 16 24 13
13 -3z m108 0 c-13 -11 -23 -24 -23 -30 0 -6 -10 -16 -22 -22 -22 -12 -22 -11
-5 8 9 11 17 23 17 28 0 10 32 34 45 34 6 0 0 -8 -12 -18z m-1478 -21 c-3 -5
-12 -10 -18 -10 -7 0 -6 4 3 10 19 12 23 12 15 0z m1581 1 c-6 -10 -66 -33
-66 -26 0 3 15 11 33 19 40 18 39 18 33 7z m-251 -31 c-3 -5 -12 -10 -18 -10
-7 0 -6 4 3 10 19 12 23 12 15 0z m-1315 -4 c0 -3 -4 -8 -10 -11 -5 -3 -10 -1
-10 4 0 6 5 11 10 11 6 0 10 -2 10 -4z m-330 -20 c0 -8 -4 -18 -10 -21 -5 -3
-10 -17 -10 -30 0 -13 -5 -27 -11 -30 -6 -4 -8 -13 -5 -20 3 -8 -2 -19 -10
-25 -8 -7 -14 -19 -14 -26 0 -20 28 -5 36 19 4 12 22 40 40 61 19 22 34 45 34
52 0 6 7 14 15 18 17 6 19 -6 6 -32 -5 -9 -14 -30 -21 -47 -26 -63 -39 -93
-84 -183 -25 -52 -44 -97 -41 -102 2 -4 -4 -15 -15 -25 -10 -9 -16 -23 -13
-31 2 -7 -7 -24 -22 -38 -16 -15 -22 -27 -15 -31 6 -3 8 -11 4 -16 -3 -5 -9
-7 -14 -4 -11 7 -29 -26 -23 -42 3 -7 0 -13 -6 -13 -6 0 -7 -7 -4 -17 4 -9 2
-14 -3 -10 -6 3 -16 -3 -23 -15 -7 -11 -8 -17 -2 -13 23 14 10 -15 -16 -36
-16 -12 -20 -19 -10 -16 24 9 22 -10 -3 -23 -11 -6 -20 -15 -20 -21 0 -6 5 -7
10 -4 22 14 8 -16 -15 -31 -14 -9 -25 -21 -25 -26 0 -6 6 -5 15 2 8 7 15 9 15
4 0 -5 -14 -21 -32 -37 -18 -15 -25 -24 -15 -21 26 9 20 -12 -10 -36 -16 -12
-20 -19 -10 -16 25 8 21 -9 -8 -32 -14 -11 -21 -22 -15 -24 15 -5 1 -38 -16
-38 -8 0 -14 -5 -14 -11 0 -5 5 -7 10 -4 6 3 10 2 10 -4 0 -11 -58 -81 -77
-94 -7 -4 -13 -17 -13 -27 0 -11 -7 -20 -15 -20 -8 0 -15 -4 -15 -10 0 -5 6
-10 14 -10 10 0 5 -11 -14 -32 -16 -17 -28 -34 -25 -36 2 -3 -2 -17 -11 -33
-14 -28 -54 -41 -54 -19 0 6 7 10 16 10 11 0 14 6 9 20 -4 13 -2 20 6 20 9 0
10 3 3 10 -17 17 -41 2 -59 -36 -9 -19 -21 -34 -28 -34 -7 0 -23 -3 -37 -7
-22 -6 -24 -5 -11 10 7 9 20 17 27 17 21 0 17 20 -3 21 -10 0 0 9 22 19 39 19
39 19 10 17 -28 -2 -63 -32 -51 -44 6 -7 -14 -28 -34 -36 -11 -4 -10 -6 5 -7
19 -1 19 -1 1 -15 -10 -7 -15 -18 -12 -23 3 -6 -1 -13 -10 -16 -18 -7 -9 -26
13 -26 8 0 17 9 20 20 3 11 10 20 15 20 6 0 8 6 5 14 -4 9 3 16 20 21 29 7 44
-1 19 -11 -9 -3 -13 -11 -9 -17 3 -5 -3 -17 -13 -25 -12 -9 -15 -16 -7 -19 7
-2 -2 -18 -22 -39 -33 -34 -59 -48 -35 -19 7 8 9 15 5 15 -4 0 -2 7 5 15 10
12 10 15 -3 15 -25 0 -47 -11 -41 -21 3 -5 0 -9 -5 -9 -6 0 -11 -6 -11 -14 0
-17 -49 -77 -50 -61 0 6 4 24 9 42 6 22 6 30 -2 29 -7 -1 -12 -4 -12 -7 0 -14
-70 -64 -94 -66 l-26 -3 28 17 c15 10 25 23 23 30 -3 6 0 14 7 16 7 2 9 7 5
11 -3 4 -16 2 -28 -4 -16 -9 -19 -14 -11 -20 9 -5 6 -9 -8 -13 -12 -3 -21 -13
-21 -24 0 -24 -55 -89 -64 -74 -4 6 -3 11 2 11 5 0 9 6 9 13 0 6 4 20 8 30 5
12 2 17 -9 17 -9 0 -16 -3 -16 -8 0 -4 -14 -23 -32 -42 -18 -19 -31 -40 -30
-46 1 -6 -10 -19 -25 -29 -16 -10 -44 -34 -63 -54 -43 -46 -114 -101 -129
-101 -11 0 -52 -20 -61 -31 -10 -11 -127 -49 -215 -70 -112 -26 -281 -28 -410
-5 -59 11 -91 13 -93 6 -2 -5 -16 -10 -30 -9 -27 0 -27 0 -4 11 12 6 22 15 22
19 0 5 -16 1 -37 -9 -26 -12 -37 -14 -40 -5 -3 9 -12 9 -30 2 -14 -5 -28 -7
-31 -4 -3 3 0 5 6 5 7 0 12 5 12 11 0 6 -9 9 -20 6 -10 -3 -24 1 -30 8 -9 11
-17 11 -36 3 -13 -6 -24 -15 -24 -20 0 -11 28 -10 35 2 3 6 11 10 17 10 6 0 3
-10 -8 -21 l-19 -22 28 7 c16 4 26 3 23 -2 -3 -5 12 -17 34 -27 22 -10 37 -21
35 -25 -3 -5 3 -6 12 -4 27 6 78 -11 75 -26 -2 -8 3 -10 13 -6 9 3 13 2 10 -4
-3 -6 -16 -8 -28 -5 -12 3 -40 7 -62 9 -25 2 -39 7 -37 15 2 12 -13 6 -48 -19
-11 -8 -8 -9 15 -4 27 7 29 6 16 -9 -12 -15 -11 -17 3 -17 9 0 16 -5 16 -11 0
-7 -12 -9 -35 -5 -33 7 -62 -3 -93 -31 -9 -9 -18 -10 -30 -2 -12 7 -25 7 -44
0 -31 -12 -38 -31 -11 -31 13 0 14 -3 5 -12 -10 -10 -17 -10 -32 0 -16 10 -25
10 -43 1 -20 -11 -21 -11 -9 4 11 13 10 17 -7 26 -24 13 -41 14 -61 1 -13 -9
-13 -11 0 -20 13 -9 13 -11 0 -20 -20 -13 -33 -13 -24 2 7 11 -9 9 -51 -8 -18
-7 -18 -6 -6 9 12 15 11 17 -4 17 -21 0 -15 20 10 34 39 22 43 30 26 43 -14
11 -14 12 6 13 12 0 23 3 26 8 2 4 2 1 1 -5 -5 -19 10 -16 37 6 l24 20 -25 -5
c-25 -4 -25 -4 -2 7 12 7 22 16 22 22 0 5 -6 5 -14 -2 -9 -8 -21 -8 -45 0 -28
10 -36 8 -71 -15 -46 -30 -58 -33 -39 -9 12 15 12 16 -8 11 -20 -5 -21 -3 -13
12 6 10 19 22 30 25 23 7 27 25 5 25 -15 0 -22 19 -7 21 33 3 70 3 66 0 -6 -7
17 -31 31 -31 7 0 24 11 39 25 30 28 48 33 40 10 -5 -13 2 -15 42 -12 27 2 48
8 47 13 -1 5 -3 16 -6 24 -2 8 -2 11 1 7 7 -14 82 42 82 62 0 15 -42 41 -67
41 -13 0 -22 5 -21 13 2 8 -11 12 -40 12 -45 0 -49 3 -29 24 10 11 8 12 -10 6
-15 -4 -23 -2 -23 5 0 7 -8 9 -20 5 -16 -5 -19 -3 -13 11 5 14 3 16 -11 11
-10 -4 -15 -3 -11 3 3 6 -4 10 -15 10 -16 0 -20 5 -16 15 3 10 -1 15 -13 15
-10 0 -28 9 -41 20 -13 11 -28 20 -35 20 -6 0 -17 11 -25 24 -8 16 -18 22 -28
18 -12 -4 -14 -1 -8 13 3 10 2 21 -4 25 -10 6 66 61 111 79 13 5 18 10 10 10
-16 1 84 70 122 83 29 11 35 24 15 31 -7 2 -5 3 4 2 9 -2 25 3 35 10 10 7 27
15 38 18 19 4 18 5 -2 6 -12 0 -25 -3 -28 -9 -3 -5 -11 -10 -17 -10 -19 0 34
40 61 47 14 3 35 12 46 19 19 14 19 14 0 14 -19 1 -19 1 -2 11 10 6 25 8 33 5
8 -3 13 -2 10 3 -7 11 22 37 57 50 33 13 36 31 5 25 -16 -3 -14 0 10 13 37 19
42 33 10 27 -22 -5 -22 -4 -4 8 10 7 28 21 40 31 20 16 20 17 1 11 -11 -3 9
10 44 30 65 36 90 54 58 43 -28 -10 -10 11 25 29 17 9 40 26 52 38 11 13 34
27 50 33 17 5 32 15 34 23 3 8 0 10 -8 5 -9 -6 -11 -4 -6 4 5 7 14 10 22 7 9
-3 11 0 7 11 -5 12 -1 14 18 8 15 -4 19 -3 11 3 -9 6 3 19 46 48 99 65 100 66
75 54 -37 -17 -18 14 20 33 57 30 172 116 169 127 -1 7 2 9 7 6 5 -4 43 14 84
39 41 25 78 45 81 45 4 0 16 9 28 20 12 11 28 20 35 20 7 0 13 4 13 8 0 5 11
14 25 20 16 8 25 8 25 1 0 -5 11 2 25 16 29 28 40 32 31 10 -8 -21 7 -18 27 6
12 14 24 18 39 13 17 -5 20 -3 15 10 -4 10 -3 15 3 11 6 -3 23 3 39 14 44 32
61 24 21 -9 -19 -16 -32 -30 -28 -30 10 0 45 28 77 64 14 15 40 37 56 49 l30
20 -29 -31 c-38 -41 -22 -41 32 -1 45 33 55 29 20 -8 -12 -13 -17 -23 -11 -23
5 0 20 11 33 25 13 14 30 25 37 25 8 0 11 5 8 10 -3 6 -1 10 4 10 14 0 14 -13
-1 -28 -9 -9 -9 -12 0 -12 7 0 12 3 12 8 0 10 95 74 106 70 5 -1 18 3 29 9 46
24 231 57 240 42 4 -5 13 -5 25 1 29 16 42 12 35 -10 -10 -30 16 -25 50 10 17
18 39 30 54 30 14 0 22 -4 16 -8 -12 -8 -16 -42 -5 -42 13 0 30 26 22 35 -4 5
2 5 13 1 11 -4 16 -4 12 0 -4 4 -2 13 4 21 13 15 43 18 34 3 -11 -18 39 -10
65 10 27 21 50 26 50 11 0 -6 -5 -13 -11 -16 -6 -5 -4 -12 8 -22 17 -14 17
-14 -2 -8 -11 3 -16 3 -12 -1 4 -4 -1 -16 -10 -27 -18 -20 -18 -20 15 -3 17 9
32 23 32 31 0 14 48 65 62 65 5 0 8 -6 8 -14z m1842 -8 c-7 -7 -12 -8 -12 -2
0 14 12 26 19 19 2 -3 -1 -11 -7 -17z m-112 4 c0 -5 -11 -19 -25 -32 -29 -27
-34 -15 -7 18 17 22 32 28 32 14z m-110 -26 c0 -11 -19 -15 -25 -6 -3 5 1 10
9 10 9 0 16 -2 16 -4z m185 -26 c-3 -5 -12 -10 -18 -10 -7 0 -6 4 3 10 19 12
23 12 15 0z m-7648 -36 c-3 -3 -12 -4 -19 -1 -8 3 -5 6 6 6 11 1 17 -2 13 -5z
m297 0 c35 -5 45 -9 35 -16 -11 -7 -9 -8 5 -4 10 4 33 2 50 -3 17 -5 51 -15
76 -21 54 -14 100 -33 100 -41 0 -3 18 -12 41 -19 23 -8 54 -26 71 -42 16 -15
52 -40 79 -55 28 -15 63 -39 79 -55 17 -15 33 -28 36 -28 3 0 13 -9 22 -20 10
-10 39 -34 66 -52 29 -20 50 -43 52 -56 2 -12 0 -22 -5 -22 -14 0 -22 -32 -11
-45 8 -9 4 -11 -16 -7 -19 3 -25 1 -20 -7 5 -7 -1 -11 -14 -11 -15 0 -20 -5
-17 -14 6 -16 -97 -48 -153 -48 -26 1 -31 -2 -20 -9 11 -8 4 -9 -23 -4 -21 3
-46 9 -54 12 -10 4 -14 2 -10 -4 4 -6 -10 -10 -36 -10 -23 -1 -51 -2 -62 -4
-11 -1 -42 1 -70 4 l-50 7 33 -17 c17 -9 32 -20 32 -25 0 -5 -9 -4 -21 2 -11
6 -30 10 -42 8 -15 -2 -3 -10 41 -24 61 -21 74 -20 50 4 -7 7 -8 12 -2 12 6 0
14 -3 18 -7 6 -6 28 -11 69 -15 9 -1 17 -6 17 -10 0 -4 4 -8 10 -8 11 0 1 32
-14 42 -7 5 -6 8 2 8 8 0 16 -9 19 -20 3 -11 9 -20 14 -20 5 0 1 -9 -8 -19 -9
-11 -21 -17 -26 -14 -6 4 -8 -1 -4 -10 4 -11 1 -17 -7 -17 -8 0 -16 -4 -18 -9
-1 -5 -12 -11 -23 -13 -26 -4 -36 -18 -29 -40 3 -11 0 -18 -8 -18 -7 0 -1 -8
15 -18 15 -9 25 -22 23 -29 -3 -6 2 -14 10 -17 24 -9 16 -24 -11 -18 -25 4
-35 -12 -12 -21 22 -9 -77 4 -107 14 -67 21 -40 -2 39 -33 14 -5 11 -6 -10 -3
-53 8 -131 15 -112 9 9 -3 17 -9 17 -14 0 -5 10 -10 23 -13 12 -2 -6 -1 -40 1
-41 3 -63 1 -63 -6 0 -6 17 -13 38 -15 35 -3 34 -4 -9 -5 -48 -2 -134 -34
-122 -45 3 -4 -2 -7 -13 -7 -11 0 -37 -9 -59 -20 -61 -31 -194 -47 -253 -30
-26 7 -64 15 -84 18 -21 2 -38 8 -38 13 0 5 -15 9 -32 9 -18 0 -51 7 -73 15
-72 26 -495 13 -495 -15 0 -4 -24 -10 -52 -14 -60 -8 -98 -19 -183 -52 -33
-13 -70 -24 -83 -24 -13 0 -21 -4 -18 -9 5 -8 -35 -31 -56 -31 -6 0 -19 -7
-28 -15 -10 -9 -27 -17 -39 -20 -11 -2 -36 -15 -54 -29 -19 -14 -39 -26 -46
-26 -6 0 -17 -5 -24 -10 -28 -24 -84 -61 -112 -74 -16 -8 -52 -31 -80 -50 -27
-20 -55 -36 -60 -36 -6 0 -28 -12 -48 -26 -21 -14 -41 -23 -44 -20 -9 8 52 92
104 144 24 24 43 45 43 47 0 3 8 14 18 24 46 51 62 69 62 73 0 3 24 29 53 59
28 30 59 68 67 84 15 28 59 78 201 225 42 44 74 82 71 85 -3 3 1 5 9 5 8 0 23
14 34 30 11 16 25 30 31 30 6 0 22 12 36 28 15 15 54 50 87 77 34 28 64 60 67
72 3 12 31 41 62 64 32 23 64 49 73 58 8 9 47 36 85 61 38 25 77 51 86 59 25
21 126 78 178 102 25 10 61 28 80 38 20 11 57 22 83 26 26 4 47 11 47 15 0 5
14 5 31 0 28 -8 29 -7 17 7 -12 15 -10 16 15 9 16 -4 26 -3 23 2 -3 5 32 9 77
10 45 1 96 5 112 10 39 11 127 14 189 6z m7316 -7 c0 -2 -12 -14 -27 -28 -24
-22 -23 -11 2 18 9 11 25 17 25 10z m-140 -81 c0 -2 -7 -7 -16 -10 -8 -3 -12
-2 -9 4 6 10 25 14 25 6z m-45 -26 c-3 -5 -11 -10 -16 -10 -6 0 -7 5 -4 10 3
6 11 10 16 10 6 0 7 -4 4 -10z m-85 -5 c0 -2 -10 -10 -22 -16 -21 -11 -22 -11
-9 4 13 16 31 23 31 12z m-3051 -98 c-36 -34 -112 -102 -169 -152 -57 -49
-122 -106 -144 -126 -132 -117 -459 -401 -506 -439 -30 -25 -57 -47 -60 -50
-3 -3 -52 -46 -109 -95 -57 -50 -145 -125 -195 -169 -50 -43 -107 -89 -127
-101 -19 -13 -49 -36 -65 -52 -16 -16 -87 -78 -159 -138 -71 -60 -136 -115
-143 -122 -7 -7 -18 -14 -23 -14 -5 -1 -13 -3 -19 -4 -5 -1 -18 -3 -27 -4 -15
-1 -16 -3 -3 -11 9 -6 11 -12 5 -18 -6 -4 -37 -30 -70 -57 -33 -27 -66 -58
-73 -67 -22 -31 -45 -19 -97 48 -27 36 -57 73 -65 82 -16 18 -223 287 -275
357 -16 22 -32 41 -37 43 -4 2 -4 10 -1 18 3 8 1 14 -4 12 -10 -3 -113 113
-183 207 -25 33 -48 62 -51 65 -3 3 -52 64 -108 135 -57 72 -123 154 -147 184
-47 57 -53 71 -29 71 9 0 12 -6 8 -17 -5 -14 -3 -15 7 -6 7 6 19 9 26 6 8 -3
14 0 14 7 0 7 7 10 17 6 15 -6 174 -19 217 -18 10 1 32 -6 47 -14 34 -17 49
-18 26 -1 -15 10 -14 12 13 11 17 0 33 -4 37 -7 3 -4 12 -2 19 4 13 10 54 -7
54 -23 0 -5 5 -8 11 -8 7 0 35 -14 63 -32 88 -54 114 -67 121 -60 4 4 12 0 19
-8 16 -20 52 -40 73 -40 14 0 12 6 -12 30 -16 16 -35 35 -41 42 -7 7 -36 33
-65 58 -83 70 -159 142 -159 151 0 8 21 11 217 28 62 6 126 17 142 25 22 12
37 13 65 5 27 -8 41 -7 52 2 8 6 39 11 69 10 33 0 55 3 55 10 0 7 18 8 53 4
50 -6 144 7 692 96 72 12 137 22 145 23 9 1 21 5 28 10 6 4 15 5 20 2 4 -2 30
0 57 5 80 16 257 49 289 54 16 3 46 10 68 16 22 5 79 17 126 25 48 8 98 17
112 20 14 3 66 13 115 23 50 10 104 19 120 20 29 0 28 -1 -36 -62z m-3674
-387 c7 -12 -2 -12 -30 0 -19 8 -19 9 2 9 12 1 25 -3 28 -9z m100 0 c3 -5 1
-10 -4 -10 -6 0 -11 5 -11 10 0 6 2 10 4 10 3 0 8 -4 11 -10z m-15 -31 c0 -6
-4 -7 -10 -4 -5 3 -10 11 -10 16 0 6 5 7 10 4 6 -3 10 -11 10 -16z m-163 -325
c-3 -3 -12 -4 -19 -1 -8 3 -5 6 6 6 11 1 17 -2 13 -5z m128 -4 c3 -5 2 -10 -4
-10 -5 0 -13 5 -16 10 -3 6 -2 10 4 10 5 0 13 -4 16 -10z m-207 -7 c-10 -2
-26 -2 -35 0 -10 3 -2 5 17 5 19 0 27 -2 18 -5z m69 -19 c-3 -3 -12 -4 -19 -1
-8 3 -5 6 6 6 11 1 17 -2 13 -5z m148 -14 c3 -5 2 -10 -4 -10 -5 0 -13 5 -16
10 -3 6 -2 10 4 10 5 0 13 -4 16 -10z m2885 -10 c-8 -5 -19 -10 -25 -10 -5 0
-3 5 5 10 8 5 20 10 25 10 6 0 3 -5 -5 -10z m2084 -19 c3 -5 -1 -12 -10 -15
-27 -11 -37 -7 -24 9 14 17 26 19 34 6z m86 -9 c0 -4 -10 -9 -22 -9 -18 -2
-20 0 -8 7 18 12 30 13 30 2z m-100 -36 c0 -2 -7 -6 -15 -10 -8 -3 -15 -1 -15
4 0 6 7 10 15 10 8 0 15 -2 15 -4z m940 -56 c0 -5 -4 -10 -10 -10 -5 0 -10 5
-10 10 0 6 5 10 10 10 6 0 10 -4 10 -10z m-38 -62 c-7 -7 -12 -8 -12 -2 0 14
12 26 19 19 2 -3 -1 -11 -7 -17z m-1222 -20 c0 -4 -9 -8 -21 -8 -11 0 -18 4
-15 8 3 5 12 9 21 9 8 0 15 -4 15 -9z m1606 -15 c-10 -10 -19 5 -10 18 6 11 8
11 12 0 2 -7 1 -15 -2 -18z m-1636 -13 c0 -5 -4 -10 -10 -10 -5 0 -10 5 -10
10 0 6 5 10 10 10 6 0 10 -4 10 -10z m1780 6 c0 -3 -4 -8 -10 -11 -5 -3 -10
-1 -10 4 0 6 5 11 10 11 6 0 10 -2 10 -4z m537 -2 c-3 -3 -12 -4 -19 -1 -8 3
-5 6 6 6 11 1 17 -2 13 -5z m-914 -11 c-7 -2 -19 -2 -25 0 -7 3 -2 5 12 5 14
0 19 -2 13 -5z m434 -29 c-3 -3 -12 -4 -19 -1 -8 3 -5 6 6 6 11 1 17 -2 13 -5z
m-6307 -151 c58 -13 130 -35 160 -48 30 -13 92 -40 138 -59 46 -20 88 -36 94
-36 6 0 25 -10 42 -22 17 -13 47 -30 66 -39 116 -54 162 -78 185 -98 11 -10
61 -40 110 -68 50 -27 155 -90 235 -140 80 -49 166 -103 192 -119 26 -16 48
-31 48 -34 0 -5 -280 -230 -425 -340 -38 -30 -76 -59 -85 -67 -8 -7 -38 -29
-67 -50 -28 -21 -84 -62 -124 -91 -76 -55 -120 -74 -127 -54 -2 7 -16 12 -32
12 -20 0 -29 6 -33 21 -4 16 -12 20 -33 17 -26 -3 -31 3 -62 62 -19 36 -38 71
-44 78 -6 6 -7 12 -2 12 5 0 5 4 -1 8 -20 14 -44 71 -33 78 7 4 5 10 -3 15
-12 8 -12 10 -1 18 11 6 9 10 -7 14 -13 3 -19 11 -15 20 3 8 -2 22 -11 31 -9
9 -14 23 -11 31 3 8 -3 17 -16 21 -15 4 -17 8 -8 14 10 6 9 10 -2 16 -13 8
-30 37 -32 56 -1 3 -4 10 -8 14 -5 4 -8 16 -8 26 0 10 -7 21 -15 24 -12 5 -13
9 -4 21 10 11 8 15 -9 20 -24 6 -30 23 -9 23 7 1 5 6 -5 14 -10 7 -18 21 -18
30 0 9 -7 16 -15 16 -18 0 -20 16 -2 23 7 4 3 8 -10 12 -18 6 -21 13 -17 30 4
15 0 24 -11 29 -9 3 -14 9 -11 14 8 14 -10 33 -32 35 -24 1 -29 12 -9 20 7 4
3 8 -10 12 -13 4 -23 15 -23 26 0 11 -4 19 -10 19 -5 0 -7 6 -4 14 3 9 -5 22
-21 32 -25 16 -26 19 -9 25 17 7 17 8 2 8 -11 1 -18 9 -18 21 0 11 -4 20 -10
20 -5 0 -10 7 -10 15 0 7 -7 18 -15 23 -9 4 -17 22 -18 40 -1 21 -8 33 -22 38
-18 5 -18 7 -2 11 21 6 23 23 1 23 -22 0 -48 27 -31 33 6 3 4 6 -7 6 -15 1
-16 4 -6 16 11 13 8 15 -16 15 -35 0 -20 17 21 23 56 9 190 -5 295 -30z m4145
7 c-3 -5 -11 -10 -16 -10 -6 0 -7 5 -4 10 3 6 11 10 16 10 6 0 7 -4 4 -10z
m-105 -64 c0 -2 -7 -9 -15 -16 -13 -11 -14 -10 -9 4 5 14 24 23 24 12z m336
-38 c-27 -40 -85 -80 -106 -73 -19 6 -18 8 8 29 32 27 94 66 105 66 4 0 1 -10
-7 -22z m-2056 -42 c0 -3 -4 -8 -10 -11 -5 -3 -10 -1 -10 4 0 6 5 11 10 11 6
0 10 -2 10 -4z m30 -16 c-24 -15 -37 -11 -16 5 11 8 22 12 25 9 3 -3 -1 -9 -9
-14z m-116 -16 c5 -13 3 -14 -6 -7 -7 6 -20 13 -28 16 -10 4 -8 6 6 6 12 1 25
-6 28 -15z m146 -3 c0 -5 -13 -14 -30 -20 -38 -13 -40 -35 -2 -27 15 3 21 3
15 0 -7 -3 -13 -10 -13 -15 0 -16 21 -10 53 17 21 18 32 22 37 14 5 -8 20 -10
41 -6 l34 7 -30 -17 c-49 -27 -80 -54 -63 -54 9 0 27 9 41 20 30 24 43 25 63
5 13 -12 11 -16 -15 -30 -16 -8 -32 -11 -35 -6 -3 5 4 12 17 16 20 7 21 7 3
12 -13 4 -26 -3 -39 -21 -21 -29 -34 -32 -56 -12 -14 12 -23 9 -69 -24 -29
-21 -48 -41 -43 -44 5 -4 21 5 35 19 14 14 32 25 40 25 8 0 17 6 19 13 4 9 6
9 6 0 1 -13 -3 -17 -63 -63 -40 -31 -38 -42 2 -14 28 20 42 10 19 -13 -10 -10
-31 -17 -52 -16 -42 1 -43 -4 -7 -34 l27 -23 -28 -25 c-15 -14 -33 -25 -40
-25 -7 0 4 10 23 22 32 20 33 23 13 26 -15 2 -20 8 -16 19 5 12 1 14 -15 9
-17 -6 -21 -4 -16 7 4 11 -5 14 -40 12 -43 -1 -59 7 -36 18 6 3 5 4 -2 3 -26
-5 -13 -31 15 -29 31 2 35 -7 8 -24 -15 -9 -22 -8 -37 5 -11 9 -36 26 -56 37
-21 11 -38 23 -38 27 0 5 -6 8 -12 8 -7 0 -23 11 -35 23 l-21 23 36 1 c21 1
29 -1 20 -4 -28 -7 -21 -21 8 -15 19 3 25 1 20 -7 -5 -8 0 -8 20 1 l27 13 -23
5 c-13 3 -25 10 -27 15 -3 9 18 12 92 15 19 1 19 2 2 11 -10 6 -32 8 -50 4
-28 -5 -30 -4 -12 6 11 7 41 14 67 15 27 1 58 10 75 22 44 31 127 81 136 81 4
1 7 -3 7 -8z m140 5 c0 -2 -7 -7 -16 -10 -8 -3 -12 -2 -9 4 6 10 25 14 25 6z
m-119 -29 c-13 -13 -26 -3 -16 12 3 6 11 8 17 5 6 -4 6 -10 -1 -17z m-116 3
c-3 -5 -13 -10 -21 -10 -8 0 -14 5 -14 10 0 6 9 10 21 10 11 0 17 -4 14 -10z
m-110 -16 c16 -8 38 -13 48 -10 18 4 18 4 2 -14 -14 -15 -22 -17 -36 -9 -11 5
-19 13 -19 18 0 4 -10 13 -22 19 -13 6 -18 11 -13 11 6 1 23 -6 40 -15z m485
-19 c-14 -17 -30 -20 -30 -6 0 5 8 12 18 14 9 3 19 5 21 6 2 0 -2 -6 -9 -14z
m35 -24 c-3 -6 -14 -11 -23 -11 -13 0 -13 2 4 14 21 15 30 14 19 -3z m-645 -1
c-8 -5 -19 -10 -25 -10 -5 0 -3 5 5 10 8 5 20 10 25 10 6 0 3 -5 -5 -10z m75
0 c-3 -5 -13 -10 -21 -10 -8 0 -14 5 -14 10 0 6 9 10 21 10 11 0 17 -4 14 -10z
m435 -18 c0 -14 -65 -69 -90 -76 -23 -6 -23 -6 -7 7 23 19 22 26 -3 20 -11 -3
-20 0 -20 6 0 17 28 25 43 13 8 -7 20 -6 37 3 14 8 21 14 17 15 -11 0 2 20 14
20 5 0 9 -4 9 -8z m-490 -12 c0 -5 -12 -10 -27 -10 -22 0 -25 2 -13 10 20 13
40 13 40 0z m555 -50 c3 -5 2 -10 -4 -10 -5 0 -13 5 -16 10 -3 6 -2 10 4 10 5
0 13 -4 16 -10z m222 -26 c-3 -3 -12 -4 -19 -1 -8 3 -5 6 6 6 11 1 17 -2 13
-5z m148 -4 c-3 -5 -10 -10 -16 -10 -5 0 -9 5 -9 10 0 6 7 10 16 10 8 0 12 -4
9 -10z m-568 -86 c-3 -3 -12 -4 -19 -1 -8 3 -5 6 6 6 11 1 17 -2 13 -5z m-212
-14 c-3 -5 -11 -10 -16 -10 -6 0 -7 5 -4 10 3 6 11 10 16 10 6 0 7 -4 4 -10z
m21 -25 c-9 -9 -16 -13 -16 -8 0 12 22 34 28 28 2 -2 -3 -11 -12 -20z m111 19
c-3 -3 -12 -4 -19 -1 -8 3 -5 6 6 6 11 1 17 -2 13 -5z m53 -38 c0 -3 -4 -8
-10 -11 -5 -3 -10 -1 -10 4 0 6 5 11 10 11 6 0 10 -2 10 -4z m130 -36 c0 -5
-5 -10 -11 -10 -5 0 -7 5 -4 10 3 6 8 10 11 10 2 0 4 -4 4 -10z m-5740 -440
c0 -5 -4 -10 -9 -10 -6 0 -13 5 -16 10 -3 6 1 10 9 10 9 0 16 -4 16 -10z m-30
-71 c0 -5 -11 -7 -25 -3 -17 4 -25 2 -25 -7 0 -10 -3 -10 -12 -1 -10 10 -10
14 0 21 16 10 62 2 62 -10z m-70 -39 c0 -5 7 -10 15 -10 20 0 19 -7 -5 -32
-11 -12 -20 -27 -20 -33 0 -6 -14 -21 -30 -34 -17 -12 -28 -26 -25 -31 3 -4
-6 -17 -20 -28 -14 -11 -25 -27 -25 -35 0 -9 -11 -27 -25 -41 -14 -14 -25 -32
-25 -41 0 -8 -11 -20 -25 -25 -15 -6 -23 -15 -19 -23 7 -20 -41 -69 -63 -65
-10 2 -18 10 -18 18 0 8 -6 19 -12 23 -7 4 -13 13 -13 20 0 7 4 6 10 -3 7 -12
11 -10 18 10 6 16 6 29 0 37 -7 8 -1 21 18 40 16 16 22 29 16 31 -7 2 -12 8
-12 14 0 6 7 8 15 4 8 -3 15 -1 15 4 0 6 3 9 8 8 18 -5 51 14 46 27 -3 7 3 16
15 20 12 3 21 11 21 16 0 6 9 7 20 4 12 -4 20 -2 20 5 0 6 -4 8 -10 5 -5 -3
-10 3 -10 15 0 13 9 24 25 30 14 5 30 21 37 35 6 14 17 25 25 25 20 0 16 -18
-7 -32 -23 -15 -26 -28 -6 -28 21 0 48 42 36 54 -13 13 -13 26 0 26 6 0 10 -4
10 -10z m-258 -422 c-9 -9 -15 -9 -24 0 -9 9 -7 12 12 12 19 0 21 -3 12 -12z"/>
<path d="M14537 6019 c7 -7 15 -10 18 -7 3 3 -2 9 -12 12 -14 6 -15 5 -6 -5z"/>
<path d="M14420 6000 c-8 -5 -10 -10 -5 -10 6 0 17 5 25 10 8 5 11 10 5 10 -5
0 -17 -5 -25 -10z"/>
<path d="M14510 6001 c0 -6 -8 -8 -17 -4 -15 5 -14 3 2 -10 25 -20 33 -21 51
-2 9 8 11 15 6 15 -6 0 -17 3 -26 6 -9 3 -16 1 -16 -5z"/>
<path d="M14480 5970 c0 -5 5 -10 11 -10 5 0 7 5 4 10 -3 6 -8 10 -11 10 -2 0
-4 -4 -4 -10z"/>
<path d="M14175 5950 c-3 -5 -1 -10 4 -10 6 0 11 5 11 10 0 6 -2 10 -4 10 -3
0 -8 -4 -11 -10z"/>
<path d="M14202 5938 c-14 -14 -16 -28 -3 -28 9 0 24 30 18 36 -2 2 -9 -2 -15
-8z"/>
<path d="M14328 5923 c7 -3 16 -2 19 1 4 3 -2 6 -13 5 -11 0 -14 -3 -6 -6z"/>
<path d="M14244 5884 c3 -9 6 -20 6 -25 0 -5 7 -9 15 -9 19 0 19 17 1 36 -19
19 -30 18 -22 -2z"/>
<path d="M14115 5859 c-10 -15 1 -23 20 -15 9 3 13 10 10 16 -8 13 -22 13 -30
-1z"/>
<path d="M12115 5557 c-25 -16 -48 -37 -40 -37 12 0 65 34 65 42 0 10 0 10
-25 -5z"/>
<path d="M12056 5475 c-16 -12 -17 -15 -4 -15 8 0 21 7 28 15 16 19 1 19 -24
0z"/>
<path d="M11825 5040 c-3 -5 -2 -10 4 -10 5 0 13 5 16 10 3 6 2 10 -4 10 -5 0
-13 -4 -16 -10z"/>
<path d="M11630 5555 c-20 -24 -5 -28 21 -6 19 16 20 20 8 21 -9 0 -22 -7 -29
-15z"/>
<path d="M11710 5490 c-9 -6 -10 -10 -3 -10 6 0 15 5 18 10 8 12 4 12 -15 0z"/>
<path d="M11766 5424 c-24 -23 -19 -27 9 -8 14 9 25 18 25 20 0 10 -20 3 -34
-12z"/>
<path d="M10805 5360 c-3 -6 1 -7 9 -4 18 7 21 14 7 14 -6 0 -13 -4 -16 -10z"/>
<path d="M10193 5058 c-12 -6 -24 -17 -27 -24 -3 -9 7 -5 24 8 40 29 41 34 3
16z"/>
<path d="M11314 4529 c-2 -4 2 -9 8 -12 8 -2 1 -10 -14 -17 -16 -7 -28 -17
-28 -21 0 -10 43 1 55 16 6 6 18 16 29 22 17 9 15 11 -13 15 -18 3 -34 1 -37
-3z"/>
<path d="M11230 4495 c-15 -8 -19 -14 -10 -14 18 -1 46 16 40 23 -3 2 -16 -2
-30 -9z"/>
<path d="M9550 4480 c-8 -5 -10 -10 -5 -10 6 0 17 5 25 10 8 5 11 10 5 10 -5
0 -17 -5 -25 -10z"/>
<path d="M11221 4454 c-19 -8 -32 -17 -29 -19 7 -7 55 11 63 24 8 14 8 13 -34
-5z"/>
<path d="M10955 4450 c-3 -5 -2 -10 4 -10 5 0 13 5 16 10 3 6 2 10 -4 10 -5 0
-13 -4 -16 -10z"/>
<path d="M11045 4450 c-3 -6 1 -7 9 -4 18 7 21 14 7 14 -6 0 -13 -4 -16 -10z"/>
<path d="M11135 4450 c-3 -5 1 -10 9 -10 8 0 18 5 21 10 3 6 -1 10 -9 10 -8 0
-18 -4 -21 -10z"/>
<path d="M11279 4440 l-24 -19 35 9 c19 6 36 10 37 10 2 0 3 5 3 10 0 16 -26
11 -51 -10z"/>
<path d="M11120 4399 c0 -5 5 -7 10 -4 6 3 10 8 10 11 0 2 -4 4 -10 4 -5 0
-10 -5 -10 -11z"/>
<path d="M11010 4370 c-12 -7 -10 -9 8 -7 12 0 22 5 22 9 0 11 -12 10 -30 -2z"/>
<path d="M11095 4370 c-3 -5 1 -10 9 -10 8 0 18 5 21 10 3 6 -1 10 -9 10 -8 0
-18 -4 -21 -10z"/>
<path d="M11080 4330 c20 -13 43 -13 35 0 -3 6 -16 10 -28 10 -18 0 -19 -2 -7
-10z"/>
<path d="M11055 4300 c-3 -5 3 -10 14 -10 12 0 21 5 21 10 0 6 -6 10 -14 10
-8 0 -18 -4 -21 -10z"/>
<path d="M10875 4260 c-8 -13 5 -13 25 0 13 8 13 10 -2 10 -9 0 -20 -4 -23
-10z"/>
<path d="M10970 4255 c0 -8 -6 -15 -14 -15 -7 0 -19 -7 -26 -15 -18 -22 3 -18
34 6 26 21 34 39 16 39 -5 0 -10 -7 -10 -15z"/>
<path d="M11050 4260 c0 -5 4 -10 9 -10 6 0 13 5 16 10 3 6 -1 10 -9 10 -9 0
-16 -4 -16 -10z"/>
<path d="M10870 4230 c-13 -9 -13 -10 0 -10 8 0 22 5 30 10 13 9 13 10 0 10
-8 0 -22 -5 -30 -10z"/>
<path d="M11015 4230 c-3 -5 3 -10 14 -10 11 0 23 5 26 10 3 6 -3 10 -14 10
-11 0 -23 -4 -26 -10z"/>
<path d="M10880 4203 c-26 -10 -51 -41 -39 -49 6 -3 16 -1 22 5 6 6 7 11 3 11
-5 0 2 9 15 20 25 20 25 22 -1 13z"/>
<path d="M9506 3805 c-11 -8 -15 -15 -9 -15 19 0 43 12 43 21 0 13 -12 11 -34
-6z"/>
<path d="M9304 3725 c-19 -14 -19 -14 2 -15 12 0 27 7 34 15 17 20 -9 21 -36
0z"/>
<path d="M9501 3719 c-13 -5 -22 -12 -19 -14 6 -6 58 12 58 20 0 7 -11 5 -39
-6z"/>
<path d="M9192 3708 c-13 -13 -16 -28 -4 -28 4 0 18 9 32 20 23 18 24 20 5 20
-12 0 -26 -5 -33 -12z"/>
<path d="M9544 3710 c-12 -5 -25 -14 -29 -20 -10 -16 35 -3 55 16 16 16 6 17
-26 4z"/>
<path d="M9601 3701 c-25 -7 -42 -31 -21 -31 6 0 8 5 5 10 -3 6 2 10 12 10 10
0 25 5 33 10 17 11 7 11 -29 1z"/>
<path d="M9500 3640 c-13 -8 -13 -10 2 -10 9 0 20 5 23 10 8 13 -5 13 -25 0z"/>
<path d="M9350 3629 c0 -5 5 -7 10 -4 6 3 10 8 10 11 0 2 -4 4 -10 4 -5 0 -10
-5 -10 -11z"/>
<path d="M9525 3625 c-30 -14 -30 -14 -4 -15 14 0 34 7 45 15 25 19 1 19 -41
0z"/>
<path d="M9378 3613 c7 -3 16 -2 19 1 4 3 -2 6 -13 5 -11 0 -14 -3 -6 -6z"/>
<path d="M9357 3599 c7 -7 15 -10 18 -7 3 3 -2 9 -12 12 -14 6 -15 5 -6 -5z"/>
<path d="M9423 3598 c-23 -11 -31 -28 -13 -28 6 0 10 5 10 10 0 6 6 10 14 10
8 0 18 5 21 10 8 13 -3 12 -32 -2z"/>
<path d="M9278 3593 c-10 -2 -18 -9 -18 -14 0 -13 12 -11 34 6 20 15 16 17
-16 8z"/>
<path d="M5930 5501 c0 -4 11 -6 25 -3 14 2 25 6 25 8 0 2 -11 4 -25 4 -14 0
-25 -4 -25 -9z"/>
<path d="M5840 5470 c0 -5 5 -10 11 -10 5 0 7 5 4 10 -3 6 -8 10 -11 10 -2 0
-4 -4 -4 -10z"/>
<path d="M6008 5473 c7 -3 16 -2 19 1 4 3 -2 6 -13 5 -11 0 -14 -3 -6 -6z"/>
<path d="M6580 4880 c8 -5 24 -10 34 -10 26 0 18 6 -19 14 -22 5 -26 4 -15 -4z"/>
<path d="M6500 4870 c8 -5 22 -9 30 -9 10 0 8 3 -5 9 -27 12 -43 12 -25 0z"/>
<path d="M6528 4823 c7 -3 16 -2 19 1 4 3 -2 6 -13 5 -11 0 -14 -3 -6 -6z"/>
<path d="M8380 4538 c0 -11 12 -10 30 2 12 7 10 9 -8 7 -12 0 -22 -5 -22 -9z"/>
<path d="M8424 4525 c-10 -8 -14 -14 -9 -14 6 0 19 6 29 14 11 8 15 15 10 15
-6 0 -19 -7 -30 -15z"/>
<path d="M8440 4500 c0 -5 4 -10 9 -10 6 0 13 5 16 10 3 6 -1 10 -9 10 -9 0
-16 -4 -16 -10z"/>
<path d="M8467 4483 c-7 -12 40 -40 50 -30 3 4 -1 7 -10 7 -9 0 -20 7 -25 16
-5 9 -12 12 -15 7z"/>
<path d="M8440 3926 c0 -3 9 -10 20 -16 11 -6 20 -8 20 -6 0 3 -9 10 -20 16
-11 6 -20 8 -20 6z"/>
<path d="M6548 4063 c7 -3 16 -2 19 1 4 3 -2 6 -13 5 -11 0 -14 -3 -6 -6z"/>
<path d="M9223 3878 c-12 -6 -24 -17 -27 -24 -4 -12 0 -11 24 1 17 9 30 20 30
25 0 12 1 12 -27 -2z"/>
<path d="M9054 3847 c-16 -14 -38 -26 -49 -29 -17 -3 -15 -6 14 -21 42 -21 51
-22 25 -1 -18 15 -18 15 6 10 18 -3 37 4 64 25 22 16 33 29 25 29 -8 0 -23 3
-35 6 -13 4 -31 -3 -50 -19z m40 -12 c-22 -16 -44 -19 -44 -6 0 9 21 18 49 20
10 1 9 -4 -5 -14z"/>
<path d="M9138 3833 c-10 -2 -18 -11 -18 -18 0 -8 -10 -15 -22 -17 -14 -2 -24
-11 -25 -23 -2 -11 0 -14 3 -7 3 6 10 12 14 12 8 0 76 43 89 56 5 5 -17 4 -41
-3z"/>
<path d="M8940 3780 c-12 -8 -11 -10 8 -10 12 0 22 5 22 10 0 13 -11 13 -30 0z"/>
<path d="M8985 3770 c-12 -19 13 -37 46 -32 26 4 29 6 15 14 -9 5 -25 6 -36 3
-11 -4 -20 -2 -20 4 0 5 8 12 18 14 15 4 15 5 0 6 -9 0 -20 -4 -23 -9z"/>
<path d="M8910 3740 c0 -5 5 -10 10 -10 6 0 10 5 10 10 0 6 -4 10 -10 10 -5 0
-10 -4 -10 -10z"/>
<path d="M9023 3718 c-2 -5 7 -8 21 -8 14 0 27 4 30 9 3 5 -6 8 -20 7 -14 0
-28 -4 -31 -8z"/>
<path d="M8920 3710 c0 -5 4 -10 9 -10 6 0 13 5 16 10 3 6 -1 10 -9 10 -9 0
-16 -4 -16 -10z"/>
<path d="M3345 2830 c-3 -5 -1 -10 4 -10 6 0 11 5 11 10 0 6 -2 10 -4 10 -3 0
-8 -4 -11 -10z"/>
<path d="M13675 7950 c-3 -5 -1 -10 4 -10 6 0 11 5 11 10 0 6 -2 10 -4 10 -3
0 -8 -4 -11 -10z"/>
<path d="M19270 7220 c-12 -8 -11 -10 8 -10 12 0 22 5 22 10 0 13 -11 13 -30
0z"/>
<path d="M19755 7090 c4 -6 -8 -11 -27 -11 -23 -1 -14 -5 29 -12 33 -5 95 -6
137 -2 83 7 106 22 27 17 -27 -2 -57 1 -68 6 -12 7 -25 7 -37 0 -13 -7 -26 -7
-43 1 -15 7 -22 7 -18 1z"/>
<path d="M19480 7081 c-44 -6 -43 -7 30 -13 123 -10 156 -10 145 1 -14 14
-117 21 -175 12z"/>
<path d="M19320 7040 c-18 -6 -8 -8 38 -8 34 1 62 5 62 9 0 11 -66 10 -100 -1z"/>
<path d="M0 6610 c0 -29 36 -96 55 -103 8 -4 15 -11 15 -17 0 -12 39 -71 55
-82 6 -4 6 -8 2 -8 -4 0 8 -14 27 -30 19 -17 49 -54 67 -83 76 -121 388 -428
618 -609 47 -37 87 -66 89 -64 2 2 -18 24 -44 48 -26 23 -63 58 -82 77 -19 18
-73 68 -121 111 -149 134 -299 292 -419 443 -19 23 -48 58 -65 77 -18 19 -45
53 -61 75 -17 22 -33 42 -36 45 -4 3 -26 35 -49 73 -24 37 -45 67 -47 67 -2 0
-4 -9 -4 -20z"/>
<path d="M7330 5308 c0 -7 10 -18 23 -24 12 -6 42 -22 67 -34 25 -12 57 -31
72 -41 29 -21 38 -23 38 -11 0 5 -17 18 -37 30 -21 11 -63 37 -93 56 -59 39
-70 43 -70 24z"/>
<path d="M3008 5033 c7 -3 16 -2 19 1 4 3 -2 6 -13 5 -11 0 -14 -3 -6 -6z"/>
<path d="M12770 4400 c0 -5 5 -10 11 -10 5 0 7 5 4 10 -3 6 -8 10 -11 10 -2 0
-4 -4 -4 -10z"/>
<path d="M12750 4370 c0 -5 4 -10 9 -10 6 0 13 5 16 10 3 6 -1 10 -9 10 -9 0
-16 -4 -16 -10z"/>
<path d="M13390 4370 c0 -5 4 -10 9 -10 6 0 13 5 16 10 3 6 -1 10 -9 10 -9 0
-16 -4 -16 -10z"/>
<path d="M12848 4363 c7 -3 16 -2 19 1 4 3 -2 6 -13 5 -11 0 -14 -3 -6 -6z"/>
<path d="M13288 4353 c6 -2 18 -2 25 0 6 3 1 5 -13 5 -14 0 -19 -2 -12 -5z"/>
<path d="M5888 4203 c7 -3 16 -2 19 1 4 3 -2 6 -13 5 -11 0 -14 -3 -6 -6z"/>
<path d="M5760 4080 c-12 -8 -11 -10 8 -10 12 0 22 5 22 10 0 13 -11 13 -30 0z"/>
<path d="M16798 3733 c7 -3 16 -2 19 1 4 3 -2 6 -13 5 -11 0 -14 -3 -6 -6z"/>
<path d="M10518 3673 c-1 -5 -23 -19 -48 -32 -71 -37 -152 -92 -146 -99 6 -5
87 27 96 39 3 3 19 13 35 22 34 18 94 77 78 77 -6 0 -13 -3 -15 -7z"/>
<path d="M10236 3485 c-8 -8 -22 -15 -30 -15 -9 0 -16 -4 -16 -10 0 -5 8 -6
18 -3 24 9 67 43 54 43 -6 0 -17 -7 -26 -15z"/>
<path d="M18335 3420 c3 -5 8 -10 11 -10 2 0 4 5 4 10 0 6 -5 10 -11 10 -5 0
-7 -4 -4 -10z"/>
<path d="M18446 3325 c4 -8 11 -15 16 -15 6 0 5 6 -2 15 -7 8 -14 15 -16 15
-2 0 -1 -7 2 -15z"/>
<path d="M9560 3294 c0 -5 127 -64 139 -64 6 0 22 -11 37 -25 l26 -24 -26 -12
c-14 -7 -26 -16 -26 -21 0 -12 5 -10 42 11 18 11 54 22 79 26 28 4 50 14 57
25 16 26 4 31 -75 36 -36 2 -93 11 -127 20 -97 26 -126 32 -126 28z"/>
<path d="M11719 3124 c-7 -9 -18 -24 -24 -34 -5 -10 -30 -46 -53 -80 -24 -34
-42 -64 -39 -66 2 -3 30 30 60 73 31 43 64 85 72 94 10 10 12 20 7 23 -5 3
-16 -1 -23 -10z"/>
<path d="M9688 3123 c7 -3 16 -2 19 1 4 3 -2 6 -13 5 -11 0 -14 -3 -6 -6z"/>
<path d="M9620 3090 c-20 -6 -21 -8 -5 -8 11 0 29 3 40 8 25 11 -1 11 -35 0z"/>
<path d="M9538 3033 c6 -2 18 -2 25 0 6 3 1 5 -13 5 -14 0 -19 -2 -12 -5z"/>
<path d="M9455 2990 c-18 -8 -17 -9 7 -9 15 -1 30 4 33 9 7 12 -12 12 -40 0z"/>
<path d="M11529 2853 c-13 -16 -12 -17 4 -4 16 13 21 21 13 21 -2 0 -10 -8
-17 -17z"/>
<path d="M9970 2760 c-11 -7 -2 -10 29 -10 48 0 51 4 11 13 -14 3 -32 2 -40
-3z"/>
<path d="M5010 2740 c-8 -5 -11 -12 -7 -16 4 -4 13 -2 19 4 15 15 7 24 -12 12z"/>
<path d="M19080 2690 c0 -5 5 -10 11 -10 5 0 7 5 4 10 -3 6 -8 10 -11 10 -2 0
-4 -4 -4 -10z"/>
<path d="M6932 2525 c-92 -61 -174 -121 -212 -155 -14 -12 -43 -31 -65 -42
-44 -22 -75 -47 -75 -59 0 -7 77 38 143 84 10 6 64 42 120 79 171 113 198 133
190 141 -11 11 -16 9 -101 -48z"/>
<path d="M19186 2572 c-2 -4 17 -31 42 -59 87 -96 127 -144 130 -154 2 -5 13
-14 23 -20 18 -9 18 -7 -3 25 -12 19 -26 32 -30 30 -5 -3 -8 0 -8 6 0 6 -25
43 -54 83 -54 71 -91 104 -100 89z"/>
<path d="M11216 2555 c-8 -8 -19 -15 -25 -15 -6 0 -11 -4 -11 -9 0 -4 -29 -27
-64 -50 -35 -22 -66 -48 -70 -56 -8 -22 -1 -19 61 23 79 53 95 64 134 94 30
25 32 28 12 28 -12 0 -28 -7 -37 -15z"/>
<path d="M9600 2501 c0 -10 39 -36 45 -29 2 2 -8 11 -21 21 -13 10 -24 13 -24
8z"/>
<path d="M9686 2446 c10 -8 21 -12 24 -10 5 6 -21 24 -34 24 -6 0 -1 -6 10
-14z"/>
<path d="M9720 2435 c0 -1 11 -10 25 -19 19 -13 23 -13 19 -2 -4 12 -44 31
-44 21z"/>
<path d="M11000 2400 c-8 -5 -10 -10 -5 -10 6 0 17 5 25 10 8 5 11 10 5 10 -5
0 -17 -5 -25 -10z"/>
<path d="M5855 2335 c-66 -19 -182 -51 -257 -72 -84 -23 -138 -43 -138 -50 0
-16 -19 -19 145 23 77 20 154 39 170 41 17 3 35 9 40 13 6 4 35 13 65 19 69
14 140 41 140 52 0 15 -41 9 -165 -26z"/>
<path d="M9930 2346 c0 -32 311 -106 449 -106 91 0 74 16 -26 24 -49 4 -99 8
-113 10 -69 10 -212 48 -266 71 -44 18 -44 18 -44 1z"/>
<path d="M2541 2188 c-61 -49 -111 -93 -111 -98 0 -12 27 -13 34 -1 3 5 20 12
38 15 18 3 44 18 57 31 13 14 36 33 52 42 16 10 29 24 30 33 0 10 3 9 9 -5 8
-18 9 -17 9 6 1 15 8 32 16 39 8 7 15 16 15 21 0 23 -48 -4 -149 -83z"/>
<path d="M2 2238 c2 -14 17 -29 38 -39 19 -10 49 -24 65 -32 17 -8 80 -41 140
-72 142 -75 172 -87 180 -75 4 6 -13 19 -37 31 -64 30 -156 80 -216 117 -29
17 -54 32 -57 32 -2 0 -26 14 -52 30 -56 36 -65 37 -61 8z"/>
<path d="M4615 2030 c-18 -8 -18 -9 5 -9 14 0 32 4 40 9 12 8 12 10 -5 9 -11
0 -29 -4 -40 -9z"/>
<path d="M2716 1999 c-14 -11 -23 -25 -20 -31 4 -7 9 -6 14 2 4 6 10 11 14 11
19 -3 27 0 22 8 -4 5 -1 11 6 13 8 3 9 6 1 11 -6 4 -22 -3 -37 -14z"/>
<path d="M445 2000 c3 -5 13 -10 21 -10 8 0 14 -4 14 -10 0 -5 7 -10 15 -10 9
0 33 -9 55 -20 22 -11 47 -20 57 -19 10 0 -18 18 -62 39 -81 39 -111 48 -100
30z"/>
<path d="M2670 1950 c0 -5 5 -10 11 -10 5 0 7 5 4 10 -3 6 -8 10 -11 10 -2 0
-4 -4 -4 -10z"/>
<path d="M650 1918 c0 -13 129 -78 155 -78 8 0 39 -9 70 -21 64 -24 99 -20 41
5 -21 9 -45 16 -52 16 -8 0 -14 5 -14 10 0 6 -11 8 -25 4 -14 -3 -25 -2 -25 3
0 12 -54 38 -98 47 -17 4 -32 12 -32 17 0 5 -4 9 -10 9 -5 0 -10 -6 -10 -12z"/>
</g>
</svg>
