<?xml version="1.0" standalone="no"?>
<!DOCTYPE svg PUBLIC "-//W3C//DTD SVG 20010904//EN"
 "http://www.w3.org/TR/2001/REC-SVG-20010904/DTD/svg10.dtd">
<svg version="1.0" xmlns="http://www.w3.org/2000/svg"
 width="150" height="150" viewBox="0 0 800.000000 765.000000"
 preserveAspectRatio="xMidYMid meet">

<g transform="translate(0.000000,765.000000) scale(0.100000,-0.100000)"
fill="#000000" stroke="none">
<path d="M245 6300 c3 -5 8 -10 11 -10 2 0 4 5 4 10 0 6 -5 10 -11 10 -5 0 -7
-4 -4 -10z"/>
<path d="M5709 6102 c24 -34 51 -58 51 -45 0 11 -30 55 -44 65 -23 16 -26 7
-7 -20z"/>
<path d="M5320 5903 c0 -4 33 -25 73 -45 107 -56 189 -141 261 -272 32 -59 60
-105 62 -103 7 7 -26 118 -50 165 -47 94 -133 177 -233 226 -54 27 -113 42
-113 29z"/>
<path d="M3040 5862 c-36 -15 -82 -38 -103 -51 -44 -27 -143 -139 -182 -205
-33 -56 -77 -184 -69 -198 8 -13 28 17 44 66 21 65 147 243 203 288 29 22 89
58 135 79 45 21 82 41 82 44 0 12 -49 2 -110 -23z"/>
<path d="M5102 5819 c-23 -4 -66 -21 -94 -36 -58 -32 -197 -164 -248 -236 -67
-94 -39 -3 41 133 l32 55 -43 -40 c-58 -55 -107 -133 -126 -202 -49 -178 -74
-297 -64 -307 7 -7 13 -7 21 1 7 7 26 2 63 -18 75 -41 264 -116 354 -140 116
-32 229 -30 329 6 71 26 87 38 183 130 60 58 117 105 133 109 30 7 32 15 16
83 -53 229 -182 380 -377 443 -93 30 -142 35 -220 19z m307 -205 c43 -55 11
-134 -54 -134 -67 0 -99 87 -50 135 33 34 77 33 104 -1z m177 -139 c28 -59 29
-83 8 -155 -12 -41 -29 -67 -75 -113 -33 -33 -62 -57 -65 -54 -3 3 13 33 35
66 61 90 79 175 54 264 -4 16 -7 15 -25 -8 -21 -27 -59 -33 -77 -11 -16 19 23
66 55 66 16 0 24 6 24 17 0 28 40 -15 66 -72z"/>
<path d="M3108 5766 c-49 -13 -106 -36 -128 -51 -83 -57 -181 -187 -220 -292
-27 -73 -83 -179 -87 -166 -5 14 -73 -1 -84 -19 -15 -23 -4 -33 72 -59 49 -16
101 -45 149 -81 93 -69 157 -102 257 -130 121 -34 203 -30 347 16 118 38 251
101 292 138 13 12 32 18 50 16 l29 -3 -3 55 c-3 79 -31 200 -53 235 -17 28
-19 28 -19 8 0 -34 -18 -28 -34 12 -36 86 -153 222 -237 276 -56 35 -158 69
-209 68 -19 0 -74 -10 -122 -23z m356 -237 c33 -26 35 -73 4 -106 -43 -46
-118 -13 -118 54 0 65 62 93 114 52z m-599 -156 c0 -123 8 -145 82 -225 28
-29 40 -48 31 -48 -28 0 -94 57 -128 110 -30 46 -34 61 -34 119 -1 52 4 75 23
109 14 23 25 42 25 42 1 0 1 -48 1 -107z m710 37 c18 -20 18 -21 -2 -41 -23
-23 -57 -19 -67 7 -5 14 26 54 42 54 5 0 17 -9 27 -20z"/>
<path d="M4845 5749 c-4 -6 -5 -12 -2 -15 2 -3 7 2 10 11 7 17 1 20 -8 4z"/>
<path d="M6018 5157 c6 -77 -63 -202 -231 -415 -23 -30 -57 -66 -77 -81 -36
-28 -195 -104 -217 -104 -7 0 -13 -3 -13 -7 0 -4 -19 -13 -42 -20 -53 -17 -44
-15 -98 -24 -25 -4 -79 -13 -120 -21 -41 -8 -111 -17 -155 -20 -44 -4 -118
-11 -165 -16 -47 -6 -114 -12 -150 -14 -71 -5 -154 -15 -185 -21 -22 -5 -190
-17 -217 -16 -87 4 -117 4 -128 -3 -7 -5 -11 -4 -7 1 3 5 -29 6 -76 3 -45 -3
-163 -4 -262 -2 -99 3 -270 6 -380 8 -110 2 -218 6 -240 9 -61 9 -143 17 -210
20 -161 8 -326 71 -510 197 -180 122 -212 173 -246 398 -10 64 -13 72 -24 58
-7 -10 -18 -45 -25 -79 -22 -113 -74 -187 -153 -217 -15 -6 -27 -18 -27 -27 0
-14 7 -16 37 -11 20 4 39 10 42 14 8 11 73 39 89 39 25 -2 14 -22 -26 -49 -61
-41 -57 -54 43 -114 44 -26 215 -97 283 -118 13 -4 45 -20 70 -35 53 -33 198
-76 287 -86 33 -3 92 -15 132 -25 87 -24 248 -39 538 -49 121 -4 281 -11 355
-15 81 -4 201 -3 300 4 91 7 284 16 430 21 146 4 303 13 350 19 47 7 123 16
170 22 261 30 315 44 459 114 162 80 149 73 275 143 211 116 236 133 252 163
19 38 10 51 -52 75 -31 12 -44 22 -44 36 0 30 24 32 112 9 45 -11 83 -19 85
-18 1 2 -3 17 -9 34 -10 26 -21 34 -67 47 -88 25 -104 42 -109 117 -4 57 -21
99 -41 99 -3 0 -5 -19 -3 -43z"/>
<path d="M3970 5101 c0 -22 36 -51 93 -74 l37 -16 -13 25 c-7 14 -36 38 -65
55 -48 27 -52 28 -52 10z"/>
<path d="M4320 5090 c-32 -17 -110 -91 -110 -104 0 -12 36 -5 65 12 17 10 47
35 68 54 58 55 46 75 -23 38z"/>
<path d="M6236 4861 c-4 -5 3 -7 14 -4 23 6 26 13 6 13 -8 0 -17 -4 -20 -9z"/>
<path d="M4605 4756 c-22 -8 -71 -28 -109 -46 -91 -42 -188 -62 -311 -63 -81
-2 -128 4 -251 32 -83 19 -158 31 -167 28 -24 -9 -21 -27 4 -27 12 0 64 -12
117 -26 149 -39 188 -45 313 -45 132 1 230 25 349 87 36 18 80 37 98 40 18 4
31 12 29 18 -5 16 -27 17 -72 2z"/>
<path d="M6248 4598 c22 -28 -64 -224 -129 -291 -21 -23 -39 -47 -39 -54 0 -7
-5 -13 -10 -13 -14 0 -99 -88 -122 -125 -10 -16 -39 -72 -65 -124 -26 -51 -58
-100 -70 -108 -12 -8 -80 -39 -150 -69 -70 -30 -141 -62 -158 -71 -16 -9 -54
-29 -84 -46 -50 -27 -218 -88 -301 -109 -19 -4 -72 -13 -118 -18 -56 -6 -103
-18 -146 -39 -63 -30 -139 -48 -231 -57 -27 -2 -74 -7 -104 -9 -29 -3 -62 -10
-74 -16 -11 -6 -45 -13 -76 -15 -31 -2 -69 -8 -85 -12 -26 -7 -117 5 -141 19
-5 3 -28 7 -50 8 -22 1 -43 8 -48 16 -4 8 -26 18 -48 21 -22 4 -42 11 -45 15
-3 5 -12 9 -20 9 -9 0 -22 7 -30 15 -9 8 -26 16 -40 16 -37 2 -42 3 -51 13 -5
5 -2 6 7 1 11 -6 12 -5 5 3 -6 6 -22 13 -35 16 -14 2 -25 5 -25 6 0 1 -13 3
-28 5 -42 5 -137 47 -131 57 3 4 -2 8 -10 8 -42 0 9 55 59 64 36 7 111 -17
101 -32 -3 -5 7 -8 22 -7 15 1 45 -4 67 -10 61 -18 143 -12 160 11 18 24 19
39 1 53 -13 11 -127 55 -216 84 -19 6 -68 28 -108 49 -41 21 -90 40 -110 43
-56 10 -114 34 -142 60 -45 41 -183 113 -280 145 -52 18 -99 36 -105 40 -16
12 -76 28 -126 34 -26 2 -63 16 -84 31 -21 14 -50 28 -64 32 -13 3 -36 12 -50
19 -14 8 -33 14 -41 14 -22 0 -152 74 -174 99 -11 12 -24 21 -31 21 -6 0 -22
11 -35 25 -13 14 -30 25 -39 25 -8 0 -26 11 -40 24 -30 28 -139 72 -225 91
-51 11 -63 11 -83 -2 -25 -17 -39 -53 -29 -79 6 -15 7 -216 2 -304 -1 -25 3
-58 10 -75 6 -16 15 -45 19 -64 7 -31 5 -33 -14 -28 -17 4 -21 1 -21 -17 0
-18 9 -25 41 -35 22 -7 100 -42 173 -79 72 -37 156 -78 186 -92 30 -14 80 -40
110 -58 30 -18 80 -40 110 -48 30 -9 80 -33 110 -53 30 -21 75 -45 100 -55 89
-36 214 -72 232 -68 4 1 20 -3 35 -9 15 -6 55 -17 88 -24 59 -13 86 -20 230
-65 39 -12 102 -30 142 -40 39 -11 107 -31 150 -46 105 -36 160 -38 563 -25
462 15 616 36 738 100 31 17 92 46 134 66 42 19 90 46 105 58 38 32 139 87
158 87 9 0 26 7 39 15 13 9 28 15 32 13 5 -1 19 3 32 10 12 7 22 10 22 7 0 -3
13 1 30 10 16 8 42 15 58 15 16 0 32 3 36 8 9 8 14 9 55 11 17 0 41 13 57 29
16 16 48 43 72 62 52 40 107 112 152 200 19 36 64 110 102 166 81 121 109 181
141 308 25 100 25 146 0 146 -11 0 -13 -4 -5 -12z"/>
<path d="M6300 4011 c0 -5 7 -12 16 -15 14 -5 15 -4 4 9 -14 17 -20 19 -20 6z"/>
<path d="M6180 3953 c-25 -21 -85 -70 -135 -110 -49 -40 -100 -82 -111 -93
-49 -47 -201 -140 -229 -140 -6 0 -26 -8 -45 -18 -19 -10 -66 -29 -105 -42
-38 -14 -108 -49 -154 -79 -48 -31 -133 -73 -195 -97 -61 -22 -148 -59 -194
-82 -81 -40 -115 -48 -297 -71 -183 -23 -571 -35 -775 -23 -143 9 -235 27
-310 62 -8 4 -40 12 -70 19 -30 7 -71 19 -91 26 -39 15 -313 95 -324 95 -4 0
5 -14 19 -31 14 -17 26 -39 26 -50 0 -26 -56 -52 -170 -79 -147 -34 -175 -44
-175 -59 0 -15 28 -35 194 -142 80 -51 171 -131 171 -150 0 -12 -84 -54 -150
-73 -64 -19 -208 -22 -289 -6 -30 5 -56 8 -59 5 -3 -3 22 -33 55 -67 99 -103
132 -143 148 -181 21 -50 19 -73 -7 -91 -67 -47 -279 24 -397 132 -53 50 -70
75 -124 187 -56 116 -62 140 -62 276 0 113 2 130 25 175 36 72 110 163 161
195 53 34 151 59 236 59 63 0 83 3 83 14 0 10 -27 15 -107 20 -59 4 -127 15
-152 23 -60 20 -106 19 -162 -5 -42 -18 -122 -91 -143 -130 -5 -9 -39 -55 -76
-102 -36 -47 -77 -102 -89 -122 -35 -59 -143 -280 -206 -423 -57 -129 -119
-259 -133 -280 -14 -19 -31 -80 -37 -137 -7 -53 -21 -76 -29 -45 -2 6 -9 28
-16 47 -7 19 -12 58 -11 85 1 40 -39 201 -56 224 -12 16 -13 -19 -2 -86 28
-184 59 -294 184 -648 l7 -20 -17 20 c-27 33 -51 85 -80 175 -14 47 -35 110
-46 140 -11 30 -35 97 -52 148 -17 50 -35 92 -39 92 -17 0 -29 -56 -23 -100 4
-25 7 -119 7 -210 -1 -113 4 -186 14 -232 9 -37 14 -80 12 -95 -3 -24 -7 -28
-31 -26 -15 1 -58 17 -95 36 -85 44 -122 34 -134 -36 -7 -39 79 -166 183 -268
124 -120 215 -179 509 -327 228 -115 299 -145 333 -140 l26 3 -37 58 c-20 32
-61 89 -89 125 -114 145 -204 290 -277 444 -62 131 -59 175 13 162 39 -7 169
-78 238 -131 24 -18 48 -33 53 -33 25 0 0 116 -51 236 -44 102 -77 247 -86
374 -5 73 -3 88 11 103 10 9 21 17 26 17 37 0 228 -207 249 -270 13 -38 16
-46 57 -135 15 -33 44 -100 64 -149 19 -49 41 -91 48 -94 18 -6 22 27 31 253
9 213 20 275 49 275 45 0 160 -173 274 -415 85 -181 94 -211 148 -535 5 -30
11 -148 12 -261 l3 -207 50 5 c28 2 87 7 132 12 54 4 101 3 140 -5 32 -7 101
-20 153 -29 52 -9 113 -19 135 -23 53 -9 197 -9 320 1 55 5 159 13 230 19 179
15 279 16 337 6 31 -6 96 -5 172 1 66 6 213 18 326 26 113 9 270 22 350 31
279 30 293 30 345 -1 l47 -27 -7 89 c-4 48 -13 101 -21 116 -10 22 -11 41 -3
81 5 29 11 79 13 112 7 94 24 130 69 145 49 16 53 24 28 55 -14 18 -21 41 -21
69 0 43 24 185 40 240 5 17 16 57 25 90 19 68 24 81 54 146 11 25 21 55 21 65
0 10 7 28 15 38 8 11 15 26 15 35 0 33 -50 -34 -81 -110 -37 -91 -62 -95 -34
-6 26 84 71 156 102 163 52 13 76 -5 102 -81 21 -59 26 -95 30 -235 5 -137 9
-165 21 -165 19 0 29 54 30 170 l1 90 120 155 c126 164 238 292 239 274 0 -10
-10 -23 -66 -87 -44 -50 -50 -78 -44 -222 l2 -60 15 65 c8 36 15 82 15 102 0
21 4 35 9 33 4 -3 24 23 45 57 21 35 48 77 61 94 13 17 23 36 23 43 0 21 34 7
48 -19 15 -30 10 -132 -12 -200 -7 -25 -19 -73 -25 -108 -13 -70 -58 -210 -74
-230 -7 -9 -7 -16 2 -25 9 -9 28 -4 84 24 40 20 102 50 138 67 73 34 139 86
139 109 0 17 -39 52 -57 53 -7 0 -13 -5 -13 -11 0 -33 -159 -176 -168 -150 -2
5 6 29 16 53 72 159 122 545 81 633 -5 11 -22 61 -39 112 -30 92 -129 316
-161 363 -9 14 -49 84 -89 155 -40 72 -87 148 -105 170 -38 47 -158 110 -236
125 -46 9 -56 7 -115 -22 -89 -44 -85 -58 19 -58 81 0 134 -16 178 -52 70 -58
152 -267 155 -393 1 -61 -7 -159 -22 -262 -5 -33 -61 -115 -138 -200 -50 -55
-178 -136 -209 -131 -35 5 -49 44 -42 123 7 81 31 137 117 272 33 52 58 97 54
100 -3 3 -32 -18 -63 -49 -55 -52 -160 -126 -230 -162 -42 -21 -147 -45 -211
-48 -53 -2 -82 12 -82 41 0 42 43 125 96 188 115 135 169 205 169 216 0 16
-121 13 -172 -4 -43 -15 -200 -16 -215 -1 -18 18 34 106 107 178 74 73 132
104 254 135 46 11 59 20 80 53 45 68 172 195 276 275 147 114 154 116 247 81
29 -11 55 -20 57 -20 13 0 -49 55 -80 71 -29 14 -165 50 -189 49 -3 0 -25 -17
-50 -37z m349 -1625 c-9 -16 -14 -19 -17 -9 -2 7 2 17 9 22 20 13 21 11 8 -13z
m-644 -595 c-23 -118 -35 -165 -50 -192 l-14 -26 -1 34 c0 36 61 251 71 251 4
0 1 -30 -6 -67z"/>
<path d="M2168 3540 c-36 -19 -58 -40 -41 -40 4 0 19 9 33 20 14 11 30 20 37
20 6 0 15 5 18 10 9 15 -5 12 -47 -10z"/>
<path d="M1854 3473 c-17 -16 -41 -53 -55 -83 -13 -30 -33 -71 -45 -90 -36
-58 -54 -164 -54 -321 0 -88 4 -139 9 -133 5 5 17 73 26 151 20 179 43 260
106 384 28 55 49 104 47 109 -2 6 -17 -2 -34 -17z"/>
<path d="M6758 3369 c35 -59 93 -197 114 -271 6 -21 14 -38 19 -38 11 0 12 13
0 25 -8 10 -31 114 -31 143 0 24 35 -13 69 -73 36 -64 61 -146 61 -199 0 -52
-32 -173 -56 -217 -33 -59 -35 -61 -49 -42 -8 10 -17 14 -22 9 -4 -5 -3 -11 4
-13 7 -2 9 -11 6 -19 -5 -13 -7 -13 -14 -3 -14 23 -20 4 -11 -37 6 -29 13 -38
25 -36 10 2 20 -4 23 -13 3 -8 10 -15 15 -15 6 0 19 -9 31 -20 24 -23 38 -26
38 -8 0 6 9 3 20 -7 20 -18 20 -17 21 66 0 46 4 116 10 154 5 39 9 81 8 95 0
14 -1 32 -1 40 0 51 -24 162 -43 206 -39 89 -125 212 -184 265 -84 75 -94 77
-53 8z"/>
<path d="M1720 3335 c-7 -9 -10 -18 -7 -21 3 -3 10 4 17 15 13 25 8 27 -10 6z"/>
<path d="M6650 3313 c6 -18 14 -47 20 -64 16 -52 80 -176 101 -195 21 -19 11
8 -62 163 -16 34 -29 66 -29 70 0 4 -9 19 -20 33 l-20 25 10 -32z"/>
<path d="M1576 2977 c-7 -29 -10 -196 -4 -203 3 -2 8 46 12 107 7 109 4 143
-8 96z"/>
<path d="M1591 2714 c0 -11 3 -14 6 -6 3 7 2 16 -1 19 -3 4 -6 -2 -5 -13z"/>
<path d="M6824 1955 c-12 -8 -46 -24 -77 -35 -38 -14 -71 -37 -108 -75 -47
-48 -97 -125 -82 -125 3 0 31 26 62 58 32 31 77 71 101 87 40 27 129 91 139
101 12 11 -17 2 -35 -11z"/>
<path d="M6928 1860 c-29 -52 -69 -124 -143 -264 -48 -91 -103 -175 -148 -229
-10 -12 -25 -37 -34 -57 -9 -19 -34 -54 -56 -77 -23 -24 -38 -45 -35 -49 4 -3
26 15 51 40 39 41 49 46 88 46 65 1 126 20 202 65 38 22 77 44 87 50 10 5 27
23 37 41 10 18 44 52 76 77 67 52 146 149 148 181 1 11 3 49 5 82 3 59 2 62
-19 56 -36 -9 -67 -33 -83 -64 -16 -30 -31 -49 -75 -96 -14 -15 -29 -35 -32
-45 -4 -10 -12 -17 -19 -16 -28 3 -38 -2 -38 -21 0 -36 -17 -21 -25 23 -13 72
-9 122 19 201 33 91 30 118 -6 56z"/>
<path d="M2202 1693 c66 -80 152 -173 159 -173 15 0 10 15 -11 40 -11 13 -20
27 -20 32 0 14 -72 89 -101 104 -37 19 -45 18 -27 -3z"/>
<path d="M2965 1553 c-4 -23 3 -59 24 -120 16 -49 30 -99 30 -113 0 -14 6 -74
13 -134 10 -79 16 -105 24 -95 12 16 7 259 -6 284 -1 3 -3 9 -4 14 0 5 -4 13
-8 17 -5 4 -8 31 -8 60 0 29 -4 55 -9 58 -4 3 -11 18 -14 34 -8 40 -34 37 -42
-5z"/>
</g>
</svg>
